<?xml version="1.0" standalone="no"?>
<!DOCTYPE svg PUBLIC "-//W3C//DTD SVG 1.1//EN" "http://www.w3.org/Graphics/SVG/1.1/DTD/svg11.dtd" >
<svg>
<metadata>
Created by FontForge 20090622 at Thu Oct 26 12:35:49 2017
 By deploy user
Copyright (c) 1992, 1993, 2001, Pat Snyder, 62976 Ross Inlet, Coos Bay, OR 97420. All rights reserved. The digitally
</metadata>
<defs>
<font id="MarkerFelt-Thin" horiz-adv-x="0" >
  <font-face 
    font-family="Marker Felt"
    font-weight="400"
    font-stretch="normal"
    units-per-em="1000"
    panose-1="2 0 4 0 0 0 0 0 0 0"
    ascent="800"
    descent="-200"
    x-height="566"
    cap-height="810"
    bbox="-519 -222 973 868"
    underline-thickness="20"
    underline-position="-123"
    unicode-range="U+0008-U+FB02"
  />
<missing-glyph horiz-adv-x="500" 
d="M63 0v800h375v-800h-375zM125 63h250v675h-250v-675z" />
    <glyph glyph-name="fi" unicode="fi" horiz-adv-x="450" 
d="M426 811q3 -3 3 -10q0 -9 -6 -31q-8 -27 -9 -37q1 9 1 -45q0 -20 -12 -26.5t-32 -6.5q-27 0 -54 11q-35 14 -35 37q0 7 6 19t7 19q-73 -44 -69 -211l61 16q44 11 72 11q46 0 66 -28q7 -11 7 -22q0 -14 -15.5 -43.5t-15.5 -48.5v-294q0 -20 11 -56.5t11 -50.5
q0 -20 -16 -30q-26 -16 -55 -16q-37 0 -53 26q-21 33 -21 191q0 39 2 145q2 80 0 104l-52 -14l-1 -325q0 -26 19 -49t19 -35q0 -7 -3 -14q-14 -35 -59 -35q-28 0 -53 14.5t-30 35.5q-6 26 -6 66v312q-20 -9 -42 -6q-69 9 -69 56q0 14 9 30q6 10 36 15q46 8 60 13
q2 150 26 215q33 91 130 121q4 1 15 1q31 0 85 -8.5t62 -15.5z" />
    <glyph glyph-name="fl" unicode="fl" horiz-adv-x="490" 
d="M460 -5q-20 -38 -75 -38q-49 0 -69 34q-6 10 -6 22q0 10 7 33t7 38l-2 359q-13 0 -94 -23l-1 -325q0 -26 19 -49t19 -35q0 -7 -3 -14q-14 -35 -59 -35q-28 0 -53 14.5t-30 35.5q-6 26 -6 66v312q-20 -9 -42 -6q-69 9 -69 56q0 14 9 30q6 10 36 15q46 8 60 13
q2 150 26 215q33 91 130 121q7 2 16 2q40 0 73 -29q23 7 48 7q41 0 52 -15t11 -31q0 -11 -8 -36.5t-8 -41.5v-600q0 -15 8.5 -39.5t8.5 -35.5t-5 -20zM321 552l-1 178q0 7 -1 21q-27 -9 -39 -23q-36 -44 -47 -92q-9 -37 -7 -106q9 2 48 14q26 9 47 8z" />
    <glyph glyph-name=".notdef" horiz-adv-x="500" 
d="M63 0v800h375v-800h-375zM125 63h250v675h-250v-675z" />
    <glyph glyph-name=".null" 
 />
    <glyph glyph-name=".null" 
 />
    <glyph glyph-name=".null" 
 />
    <glyph glyph-name="nonmarkingreturn" horiz-adv-x="250" 
 />
    <glyph glyph-name="space" unicode="&#x9;" horiz-adv-x="250" 
 />
    <glyph glyph-name="space" unicode=" " horiz-adv-x="250" 
 />
    <glyph glyph-name="space" unicode="&#xd;" horiz-adv-x="250" 
 />
    <glyph glyph-name="controlNULL" 
 />
    <glyph glyph-name="controlBS" 
 />
    <glyph glyph-name="controlHT" horiz-adv-x="250" 
 />
    <glyph glyph-name="controlCR" horiz-adv-x="250" 
 />
    <glyph glyph-name="controlGS" 
 />
    <glyph glyph-name="exclam" unicode="!" horiz-adv-x="200" 
d="M174 762q2 -7 2 -14q0 -10 -7 -29.5t-7 -32.5v-332q0 -15 7.5 -41t7.5 -37q0 -19 -15.5 -30.5t-39.5 -11.5q-52 0 -80 36q-9 12 -9 27q0 5 2 18.5t1 22.5q-9 125 -9 258q0 173 15 190q11 13 50 13q72 0 82 -37zM174 132q5 -11 5 -24q0 -9 -3.5 -29t-3.5 -31q0 2 3 -30
q1 -17 -7 -29q-11 -18 -41 -18q-52 0 -79 35q-7 10 -7 31q0 8 2 36q2 25 1 41q0 3 -3 21q-3 12 1 21q8 19 45 19q68 0 87 -43z" />
    <glyph glyph-name="quotedbl" unicode="&#x22;" horiz-adv-x="310" 
d="M276 696l-6 -90q-1 -9 2 -23t3 -19q0 -34 -39 -34q-21 0 -42 13.5t-26 32.5q-2 10 2 25t4 23v78l-12 48q15 27 54 27q47 0 60 -33q3 -7 0 -48zM132 720l-6 -90q-1 -9 2 -23t3 -19q0 -34 -39 -34q-21 0 -42 13.5t-26 32.5q-2 10 2 25t4 23v78l-12 48q15 27 54 27
q47 0 60 -33q3 -7 0 -48z" />
    <glyph glyph-name="numbersign" unicode="#" horiz-adv-x="480" 
d="M411 358q-15 0 -27 8v-90q0 -7 3 -19t3 -17q0 -26 -28 -26q-19 0 -39 15.5t-23 34.5q1 27 -2 80l-84 -18q-1 -22 5.5 -38t6.5 -17q0 -11 -16 -18q-12 -5 -24 -5q-28 0 -42 16.5t-6 41.5l-48 -6q-5 -1 -12 -8.5t-14 -5.5q-16 5 -30 27t-14 40t15 18q4 0 17 -3t20 -2l60 12
q2 48 -2 72q-3 -1 -23 -12q-12 -7 -23 -6q-19 1 -36.5 17t-17.5 33q0 9 6 16t19 9q19 2 23 3l54 18q1 35 -8 71t-9 41q0 17 23 26q19 8 42 8q48 0 48 -32q0 -8 -9 -18t-9 -18v-54l72 18v42q0 2 -2 18q-1 10 2 18q8 19 37 19q45 0 53 -31q7 -28 -12 -48q10 1 28.5 9t27.5 8
q16 0 25.5 -15.5t9.5 -32.5q0 -35 -25 -41q-6 -2 -17.5 3t-18.5 3l-24 -6l6 -78q3 0 21 5q12 3 21 1q15 -4 26 -19.5t11 -31.5q0 -35 -40 -35zM288 420v72l-80 -24v-72z" />
    <glyph glyph-name="dollar" unicode="$" horiz-adv-x="310" 
d="M200 768q8 -8 8 -20q0 -17 -14 -26q-10 -6 -27 -6t-33 6t-18 12q-11 33 10 48q5 3 16 3q41 0 58 -17zM298 496q0 -59 -48 -142q-51 -86 -94 -86t-83 41q-38 38 -35 67q2 18 31 18q25 0 47 -12q7 -10 24 -22q11 -1 30.5 31t19.5 51q0 11 -10 11q-6 0 -42.5 -12t-58.5 -12
q-49 0 -69 49q-1 3 -1 8q0 43 57 128q61 92 106 92q31 0 66 -32q32 -29 30 -42q-6 -52 -49 -52q-7 0 -15.5 2t-17.5 17t-18 15q-13 0 -42 -41.5t-29 -55.5q0 -4 6 -4q8 0 61 15.5t81 15.5q53 0 53 -48zM221 215q0 -33 -35 -47q-10 -4 -34.5 7.5t-25.5 20.5q-2 35 12 46
q7 6 25 6q19 0 37 -6.5t19.5 -14t1.5 -12.5z" />
    <glyph glyph-name="percent" unicode="%" horiz-adv-x="700" 
d="M680 720q-5 -14 -22 -28q-22 -17 -28 -26l-336 -492q-3 -5 -31 -69q-19 -44 -43 -51q-11 -3 -22 -3q-27 0 -45.5 19t-20.5 54q-1 25 16 40l26 22l318 480l-214 -66q4 -20 4 -41q0 -72 -44 -125q-45 -56 -112 -56q-98 0 -98 83q0 55 39.5 120t86.5 95q23 15 46 16
q32 2 40 4l288 84q12 3 37 19q21 13 35 13q6 0 12 -2q75 -20 75 -56q0 -13 -7 -34zM644 148q6 -80 -40 -130q-38 -40 -88 -43q-59 -3 -110 36t-51 97q0 57 45 99.5t104 42.5q48 0 93 -35.5t47 -66.5zM172 574q-10 3 -26 -30t-16 -54q0 -10 4 -12q8 -4 19.5 8.5t16.5 27.5
q11 37 11 43q0 14 -9 17zM529 153q-10 0 -31 -19q-24 -23 -24 -46q0 -16 14 -16q12 0 34 28t22 41q0 12 -15 12z" />
    <glyph glyph-name="ampersand" unicode="&#x26;" horiz-adv-x="560" 
d="M580 284q-7 -8 -29 -9q-27 -1 -37 -5q-28 -6 -58 -24q-154 -271 -276 -271q-66 0 -126 73q-31 38 -31 86q0 50 36 115q20 36 73 111q-22 -3 -54 6q-46 13 -54 52q-7 31 42.5 123t111.5 164q69 81 110 81q54 0 102 -78q30 -49 30 -103q0 -19 -6 -29q-12 -19 -45 -19
q-25 0 -40 12t-26 49q-9 30 -21 30q-20 0 -76.5 -82.5t-56.5 -105.5q0 -10 20 -10q22 0 72 30t65 30q24 1 42.5 -13t18.5 -39q0 -28 -25 -62q-2 -3 -26.5 -15t-29.5 -23q-52 -35 -96 -116.5t-44 -130.5q0 -36 28 -36q30 0 73.5 43t58.5 86q-29 -8 -52 9.5t-23 45.5q0 8 3 13
q12 22 150 65q135 41 162 35q19 -4 32 -21.5t13 -37.5q0 -17 -11 -29z" />
    <glyph glyph-name="quotesingle" unicode="'" horiz-adv-x="160" 
d="M132 720l-6 -90q-1 -9 2 -23t3 -19q0 -34 -39 -34q-21 0 -42 13.5t-26 32.5q-2 10 2 25t4 23v78l-12 48q15 27 54 27q47 0 60 -33q3 -7 0 -48z" />
    <glyph glyph-name="parenleft" unicode="(" horiz-adv-x="260" 
d="M200 668q-17 -28 -32 -125q-12 -83 -12 -125q0 -192 46 -302q2 -15 19.5 -38.5t17.5 -38.5q0 -26 -22.5 -39.5t-49.5 -13.5q-50 0 -77 32q-12 14 -18 66q-42 154 -42 340q0 50 16 147q18 116 44 179q6 33 8 38q5 15 18 26q10 9 31 9q34 0 65.5 -20.5t31.5 -51.5
q0 -7 -2 -14.5t-20 -27t-22 -41.5z" />
    <glyph glyph-name="parenright" unicode=")" horiz-adv-x="260" 
d="M238 386q0 -50 -16 -147q-18 -116 -44 -179q-6 -33 -8 -38q-5 -15 -16.5 -24.5t-32.5 -9.5q-34 0 -64 19q-33 21 -33 52q0 7 2 14.5t20 27t22 41.5q17 28 32 125q12 83 12 125q0 192 -46 302q-2 15 -19.5 38.5t-17.5 38.5q0 26 24 41q21 13 48 13q50 0 77 -33
q12 -14 18 -66q42 -154 42 -340z" />
    <glyph glyph-name="asterisk" unicode="*" horiz-adv-x="380" 
d="M350 578q5 -7 5 -15q0 -15 -17 -28t-38 -13q-28 0 -65 41v-41q0 -6 3.5 -14.5t3.5 -12.5q0 -13 -13 -22t-26 -9q-23 0 -40 20q-5 6 -3 33q1 28 3 56q-14 -10 -54 -31q-5 -8 -32 -17q-20 -2 -41 7.5t-21 25.5q0 4 2 8q4 9 17 13q21 7 23 8l75 41l-53 26q-12 0 -31 11
q-4 6 -4 13q0 19 22.5 37t45.5 18q7 0 14.5 -2.5t13.5 -13.5q7 -14 23 -24l2 48q-3 10 0 29q9 12 41 12q29 0 39 -17q4 -7 1 -33q-2 -23 -5 -46l28 14q8 9 31 19q16 1 31.5 -12.5t15.5 -29.5q0 -7 -4 -13t-14 -8q-13 -3 -17 -6l-41 -29l53 -29q10 -3 26 -14z" />
    <glyph glyph-name="plus" unicode="+" horiz-adv-x="440" 
d="M399 403q-16 1 -51 -1l-72 -12l8 -64q1 -9 6.5 -25.5t5.5 -24.5q0 -22 -25 -34q-20 -10 -45 -10q-34 0 -47.5 15.5t-18.5 51l-10 73.5l-42 -18q-18 -8 -36 -6q-22 2 -37 25t-15 50q0 17 9 34.5t25 17.5q4 0 16 -4t20 -3l50 8l-10 82q-1 6 -5 17t-4 17q0 18 37 29
q27 8 51 8q59 0 59 -27q0 -5 -5.5 -17.5t-4.5 -20.5l6 -72l44 8q9 2 29 8q17 6 27 6q24 0 43.5 -23t19.5 -48q0 -32 -28 -40z" />
    <glyph glyph-name="comma" unicode="," horiz-adv-x="190" 
d="M162 46q2 -8 2 -14q0 -17 -24 -45l-58 -78t-45 -40q-21 -1 -45 22t-19 46q0 2 32.5 34.5t40.5 58.5q6 8 7.5 26.5t7.5 24.5t20 6q23 0 50.5 -12.5t30.5 -28.5z" />
    <glyph glyph-name="hyphen" unicode="-" horiz-adv-x="370" 
d="M328 300q-8 -7 -19 -7q-5 0 -23 4t-28 1l-108 -26q-9 -2 -31 -12q-17 -7 -28 -7q-25 0 -44 23t-19 48q0 20 12 34q4 4 31 4q33 0 47 4l114 30q45 12 55 12q13 0 23 -6q31 -18 31 -66q0 -25 -13 -36z" />
    <glyph glyph-name="hyphen" unicode="&#x2010;" horiz-adv-x="370" 
d="M328 300q-8 -7 -19 -7q-5 0 -23 4t-28 1l-108 -26q-9 -2 -31 -12q-17 -7 -28 -7q-25 0 -44 23t-19 48q0 20 12 34q4 4 31 4q33 0 47 4l114 30q45 12 55 12q13 0 23 -6q31 -18 31 -66q0 -25 -13 -36z" />
    <glyph glyph-name="period" unicode="." horiz-adv-x="190" 
d="M161 113q2 -12 -2 -28l-9 -28q-1 -16 -2.5 -33.5t-11 -27.5t-37.5 -10t-49 11q-25 12 -26 33q0 9 5.5 22t7 20t0.5 38q0 23 11.5 34t36.5 11q26 0 49 -11.5t27 -30.5z" />
    <glyph glyph-name="slash" unicode="/" horiz-adv-x="520" 
d="M510 738q0 -12 -20 -30q-24 -20 -30 -32l-308 -584q-6 -10 -23 -66q-12 -36 -27 -39q-24 -5 -61 16q-41 24 -41 57q1 16 14 32q19 23 22 28l330 618q4 7 11 40q6 24 21 32q10 5 23 5q31 0 60 -22q30 -25 29 -55z" />
    <glyph glyph-name="zero" unicode="0" horiz-adv-x="570" 
d="M502 396q0 -171 -49 -290q-62 -146 -179 -141q-119 5 -174 147q-42 110 -42 284q0 136 50 257q65 158 184 158q106 0 163 -141q47 -115 47 -274zM358 396q-1 129 -10 180q-17 96 -68 96q-29 0 -54 -96q-22 -87 -24 -180q-3 -101 17 -195q22 -105 55 -105q29 0 57 105
q28 102 27 195z" />
    <glyph glyph-name="one" unicode="1" horiz-adv-x="570" 
d="M382 6q-13 -30 -66 -30q-50 0 -91 24q-45 27 -39 64q3 15 22 34.5t18 33.5l-18 444q-1 23 -45 46t-45 56q30 63 69 100q36 35 67 38q42 4 76 -23t32 -67q0 -11 -11 -26.5t-11 -27.5l16 -528q1 -22 18 -49.5t17 -47.5q0 -18 -9 -41z" />
    <glyph glyph-name="two" unicode="2" horiz-adv-x="570" 
d="M532 123q16 -22 16 -43q0 -29 -29 -49t-59 -20q-14 0 -42 6q-24 6 -33 5q-46 4 -133 -15q-111 -24 -119 -25q-27 -3 -65 13q-45 19 -46 48q-1 21 24 35q30 17 36 29q72 77 167 212q145 207 145 304q0 36 -21 56q-2 1 -5 1q-16 0 -61 -38q-40 -34 -49 -47q-11 -8 -19 -39
q-7 -27 -31 -37q-7 -3 -17 -3q-30 0 -62 23q-35 26 -39 58q-2 16 30 48t70 54q113 115 192 114q147 -3 147 -152q0 -119 -89 -285q-84 -158 -188 -251q28 4 164 32q46 9 44 9q40 0 72 -43z" />
    <glyph glyph-name="three" unicode="3" horiz-adv-x="570" 
d="M518 372q2 -5 2 -12q0 -69 -112 -217q-113 -150 -180 -162q-34 -6 -102 55q-64 60 -70 90q-5 23 15 42t45 18q32 -2 62.5 -24t45.5 -24t82 87.5t67 123.5q0 17 -24 17q-13 0 -30.5 -12.5t-34.5 -23.5q-13 -5 -31.5 -21.5t-34.5 -16.5q-31 0 -63 32q-35 34 -33 72
q1 25 38 38q52 18 58 22q42 32 92 101.5t50 101.5q0 9 -4 13q-6 6 -47 -28q-37 -30 -69 -66q-10 -8 -27 -37q-13 -22 -33 -29q-11 -4 -22 -4q-32 0 -59.5 24t-36.5 54q-7 24 129.5 127t194.5 103q50 0 80 -35.5t28 -84.5q-3 -81 -28 -131q-16 -33 -74 -97q53 -14 80 -32
q33 -23 46 -64z" />
    <glyph glyph-name="four" unicode="4" horiz-adv-x="570" 
d="M570 348q2 -27 -20.5 -47t-49.5 -20q-7 0 -21.5 4t-24.5 3q-17 -3 -54 -4q0 -143 -2 -154q0 -20 13.5 -53t13.5 -47q0 -34 -57 -61q-6 -3 -15 -3q-36 0 -78 39t-37 77q1 8 17.5 27.5t16.5 42.5q-2 76 -2 106q-48 -13 -126 -24q-9 -2 -27 -15q-14 -11 -27 -9q-27 4 -54 36
q-30 36 -26 72q2 23 21 33q24 13 29 21l204 366q6 11 5.5 36t8.5 36q13 16 35 16q40 0 86.5 -41t46.5 -79q0 -19 -24 -67t-24 -79v-158q26 11 82 24q31 2 59.5 -21.5t30.5 -56.5zM276 534l-90 -174l84 18z" />
    <glyph glyph-name="five" unicode="5" horiz-adv-x="570" 
d="M542 720q0 -25 -19 -43t-47 -23q-14 -3 -36 8.5t-36 9.5l-162 -22q2 -98 0 -144q57 40 132 40q49 0 84.5 -31t35.5 -83q0 -77 -54 -201q-47 -108 -109.5 -197.5t-86.5 -86.5q-47 6 -137.5 88t-82.5 111q12 41 68 41q9 0 18 -1q22 -3 50.5 -28.5t51.5 -25.5q25 0 75.5 109
t50.5 157q0 18 -13 18q-15 0 -76 -45.5t-85 -40.5q-16 4 -29 20l-25 32l-31.5 25.5t-18.5 30.5t21 36.5t23 35.5v116q0 13 -7 52.5t-7 55.5q0 15 4 22q10 15 72 17q111 5 114 5q49 6 132 20q57 9 66 9q64 0 64 -87z" />
    <glyph glyph-name="six" unicode="6" horiz-adv-x="570" 
d="M504 602q-13 -39 -84 -39q-55 0 -78 27q-8 10 -8 25q0 5 1 14.5t1 14.5q0 15 -10 24q-7 32 -32 30q-22 -1 -48 -73t-30 -147q31 46 84 46q83 0 137 -72q50 -66 55 -162q4 -78 -45 -186q-56 -125 -129 -125q-115 0 -183 96t-69 263q-1 207 60.5 343.5t155.5 136.5
q105 0 172 -124q53 -38 53 -74q0 -9 -3 -18zM348 242q7 33 7 67q0 91 -43 101q-22 5 -47 -46q-21 -44 -31 -98q-5 -27 -5 -60q0 -88 29 -96q27 -8 55 39q25 41 35 93z" />
    <glyph glyph-name="seven" unicode="7" horiz-adv-x="570" 
d="M524 698q-5 -20 -33 -38q-31 -19 -39 -36l-216 -486q-9 -20 -12 -98q-2 -55 -38 -69q-16 -6 -34 -6q-45 0 -83.5 30.5t-36.5 68.5q2 27 27 48q30 25 37 40l230 514l-120 -42l-42 -22q-22 -12 -42 -8q-24 4 -46 36t-22 64q0 24 14.5 41t49.5 15q48 -3 58 0q60 9 169 45
q94 31 101 29q38 -11 59.5 -38t21.5 -62q0 -13 -3 -26z" />
    <glyph glyph-name="eight" unicode="8" horiz-adv-x="570" 
d="M476 210q0 -64 -89 -150.5t-149 -86.5q-43 0 -103 55q-65 60 -65 114q0 49 43 124q6 10 81 124q-121 66 -114 198q3 62 59 132q60 74 131 90q26 6 50 6q71 0 109 -51q35 -45 35 -117q0 -56 -31 -114q-14 -27 -71 -108q60 -60 83 -98q31 -53 31 -118zM317 675
q-16 0 -37.5 -17.5t-31.5 -37.5q-18 -36 -18 -60q0 -33 32 -54q72 133 72 153q0 16 -17 16zM300 170q23 29 23 69q0 38 -23 47l-59 -80q-36 -53 -36 -77q0 -19 18 -19q30 0 77 60z" />
    <glyph glyph-name="nine" unicode="9" horiz-adv-x="570" 
d="M498 456q1 -207 -60.5 -343t-155.5 -136q-105 0 -172 123q-53 38 -53 74q0 9 3 18q13 39 84 39q55 0 78 -27q8 -10 8 -25q0 -5 -1 -14.5t-1 -14.5q0 -15 10 -24q7 -32 32 -30q22 1 48 73t30 147q-31 -46 -84 -46q-83 0 -137 72q-50 66 -55 162q-4 78 45 186
q56 126 129 126q115 0 183 -96.5t69 -263.5zM330 528q5 27 5 60q0 88 -29 96q-27 8 -55 -39q-25 -41 -35 -93q-7 -33 -7 -67q0 -91 43 -101q22 -5 47 46q21 44 31 98z" />
    <glyph glyph-name="colon" unicode=":" horiz-adv-x="230" 
d="M191 503q2 -12 -2 -28l-9 -28q-1 -16 -2.5 -33.5t-11 -28t-37.5 -10.5t-49 11q-25 13 -26 34q0 9 5.5 22t7 20t0.5 38q0 23 11.5 34t36.5 11q26 0 49 -11.5t27 -30.5zM161 113q2 -12 -2 -28l-9 -28q-1 -16 -2.5 -33.5t-11 -27.5t-37.5 -10t-49 11q-25 12 -26 33
q0 9 5.5 22t7 20t0.5 38q0 23 11.5 34t36.5 11q26 0 49 -11.5t27 -30.5z" />
    <glyph glyph-name="semicolon" unicode=";" horiz-adv-x="190" 
d="M167 503q2 -12 -2 -28l-9 -28q-1 -16 -2.5 -33.5t-11 -28t-37.5 -10.5t-49 11q-25 13 -26 34q0 9 5.5 22t7 20t0.5 38q0 23 11.5 34t36.5 11q26 0 49 -11.5t27 -30.5zM150 34q1 -6 1 -10q0 -12 -9.5 -22l-19.5 -21l-54 -69q-26 -30 -43 -31q-24 -1 -50 15q-31 19 -26 41
q0 2 32.5 34.5t40.5 58.5q6 8 7.5 26.5t8.5 25.5q4 4 14 4q24 0 59 -17t39 -35z" />
    <glyph glyph-name="less" unicode="&#x3c;" horiz-adv-x="380" 
d="M345 514q2 -18 -18 -34q-34 -26 -36 -28l-159 -186l174 -164q34 -32 34 -58q0 -10 -4 -20q-17 -43 -63 -43q-18 0 -37 8t-21 20t-3 26q-1 10 -8 17l-128 116q-52 43 -52 87q0 43 56.5 106.5l114.5 126.5q5 6 20 37q11 22 28 29q11 4 25 4q26 0 50.5 -14t26.5 -30z" />
    <glyph glyph-name="equal" unicode="=" horiz-adv-x="390" 
d="M350 458q-8 -7 -19 -7q-5 0 -23 4t-28 1l-108 -26q-9 -2 -31 -12q-17 -7 -28 -7q-25 0 -44 23t-19 48q0 20 12 34q4 4 31 4q33 0 47 4l114 30q45 12 55 12q13 0 23 -6q31 -18 31 -66q0 -25 -13 -36zM338 300q-8 -7 -19 -7q-5 0 -23 4t-28 1l-108 -26q-9 -2 -31 -12
q-17 -7 -28 -7q-25 0 -44 23t-19 48q0 20 12 34q4 4 31 4q33 0 47 4l114 30q45 12 55 12q13 0 23 -6q31 -18 31 -66q0 -25 -13 -36z" />
    <glyph glyph-name="greater" unicode="&#x3e;" horiz-adv-x="380" 
d="M312 179l-135 -127q-8 -7 -8 -33q-1 -20 -24 -30q-19 -8 -37 -8q-46 0 -63 43q-4 10 -4 20q0 26 34 58l174 164l-159 186q-2 2 -36 28q-21 16 -18 34q2 16 26.5 30t50.5 14q14 0 25 -4q17 -7 28 -28q17 -34 20 -38q17 -22 117 -127q59 -62 59 -100q0 -40 -50 -82z" />
    <glyph glyph-name="question" unicode="?" horiz-adv-x="410" 
d="M342 774q55 -43 55 -103q0 -56 -60 -160q-81 -138 -97 -181q-7 -18 -7 -28q0 -3 2 -10t1 -14q1 10 2 -37q0 -19 -11 -26.5t-25 -7.5q-31 0 -62 26.5t-34 56.5q-5 46 76 198q84 156 84 196q0 27 -14 27q-32 0 -110 -111q-6 -6 -14.5 -24t-20.5 -24.5t-28 -6.5
q-28 0 -51 18t-22 43q2 40 48 58q55 66 92 97q57 46 109 46q44 0 87 -33zM278 -15q-13 -22 -38 -22q-23 0 -47.5 17t-36.5 38q-8 14 -8 32v36q-1 9 -5.5 24t-4.5 22q0 10 6.5 19t39.5 9q60 0 80 -34q8 -13 8 -32v-34q1 -10 6 -28.5t5 -27.5q0 -10 -5 -19z" />
    <glyph glyph-name="at" unicode="@" horiz-adv-x="610" 
d="M366 30q-60 -23 -118 -23q-88 0 -140 53q-63 65 -63 198q0 129 92.5 225.5t212.5 96.5q117 0 182 -74q57 -64 57 -160q0 -82 -42 -140q-45 -63 -115 -63q-71 0 -88 85q-29 -57 -46 -78q-32 -42 -68 -42q-83 0 -83 100q0 72 42.5 149.5t100.5 100.5q6 2 14 2
q16 0 31 -10.5t15 -23.5q0 -4 -2 -8q-3 -7 -18 -9.5t-18 -10.5q-35 -19 -65 -89q-27 -63 -27 -101q0 -17 7 -17q6 0 15 11q20 23 26 31q12 16 18 35q12 36 10 54q-3 11 -4 34q5 24 40 24q26 0 46 -12q25 -15 30 -84q5 -62 24 -62q32 0 56 41.5t24 94.5q0 63 -36 103
q-43 47 -128 47q-91 0 -163 -96q-68 -91 -68 -190q0 -64 34 -102q39 -42 113 -42q36 0 82 26q8 2 21 14t25 12q17 0 33 -14t16 -31q0 -47 -75 -55z" />
    <glyph glyph-name="A" unicode="A" horiz-adv-x="620" 
d="M588 204q-7 -13 -31 -16q-2 0 -43 -2q7 -45 52 -112q26 -19 26 -50q0 -49 -60 -49q-57 0 -78 29q-7 10 -9 27q0 11 -1 23q-9 9 -54 116q-82 -12 -202 -34q-12 -29 -26 -84q2 -10 2 -19q0 -27 -18 -41.5t-43 -14.5q-28 0 -52 21t-24 49q0 25 23 45q75 381 182 630
q-2 12 -2 24q0 50 34 66q14 6 36 6q42 0 70 -13q36 -18 36 -54q0 -33 -18 -59q19 -170 82 -392q6 1 41 10q21 6 32 6q13 0 21 -6q35 -27 35 -66q0 -21 -11 -40zM348 280q-17 63 -54 242q-71 -155 -84 -266z" />
    <glyph glyph-name="B" unicode="B" horiz-adv-x="490" 
d="M471 338q0 -63 -65 -143q-13 -15 -130 -137l-38 -71q-25 -34 -60 -30q-68 8 -114 71q-16 21 -16 39q0 20 22 38q-10 55 -19 298q-7 200 -7 273q-21 33 -21 68q0 26 15 42q11 11 32 11q54 0 88 -41q97 36 158 36q69 0 92 -44q15 -28 15 -62q0 -105 -113 -220l92 -28
q43 -16 56 -43.5t13 -56.5zM258 668q-25 0 -92 -44q0 -9 2 -58.5t2 -65.5q40 34 73.5 81.5t33.5 70.5q0 16 -19 16zM292 350q-58 0 -110 -44l4 -152q143 113 143 169q0 27 -37 27z" />
    <glyph glyph-name="C" unicode="C" horiz-adv-x="450" 
d="M420 211q-95 -237 -190 -238q-115 -1 -168 119q-41 92 -42 241q-1 168 44 306q52 161 141 171q13 1 25 1q83 0 128 -74q33 -56 56 -178q17 -49 17 -60q0 -33 -41 -51q-9 -4 -21 -4q-29 0 -64 19q-41 22 -41 48q0 4 14 39q-2 44 -16 83.5t-32 43.5q-28 7 -49 -111
q-18 -98 -22 -216q-3 -89 10 -165q15 -87 45 -93q18 -3 43 45q24 44 40 104q-2 10 -2 19q0 59 72 59q16 0 32 -3q49 -10 49 -49q0 -32 -28 -56z" />
    <glyph glyph-name="D" unicode="D" horiz-adv-x="490" 
d="M476 652q4 -67 -46 -235q-53 -180 -120 -307q-81 -151 -148 -151q-34 0 -65.5 30t-31.5 62q0 15 9 27q-16 431 -12 586q-21 34 -21 51q0 24 27 42q24 17 50 17q24 0 40 -14q130 51 173 51q23 0 45 -11q33 -16 63 -56q34 -46 37 -92zM340 682q-10 12 -26 12
q-31 0 -122 -72q-6 -75 -6 -166q0 -130 12 -268q53 129 98 271q48 153 48 204q0 14 -4 19z" />
    <glyph glyph-name="E" unicode="E" horiz-adv-x="430" 
d="M410 702q-23 -19 -59 -19q-15 0 -35 3q-29 -9 -52 -18q-56 -21 -74 -36q-6 -104 0 -238q6 4 30 8q12 21 41 21t67.5 -28t38.5 -55q0 -7 -3 -14q-12 -30 -37 -38q-15 -5 -44 -2.5t-37 -1.5l-56 -26q0 -90 6 -116q42 10 70 24q5 7 10 13q10 11 36 9q28 -2 58 -32t30 -61
q0 -27 -23 -40t-77 -9l-94 -47q-6 -3 -26 -20q-15 -13 -27 -13q-4 0 -9 1q-53 16 -96 83q-3 5 -3 12q0 3 11 40q-11 291 -4 620q-7 10 -7 20q0 33 61 42q13 2 33 -7l25 -13l120 38q4 1 23 12q13 8 30 8q8 0 19 -2q22 -4 43.5 -34.5t21.5 -57.5q0 -17 -11 -26z" />
    <glyph glyph-name="F" unicode="F" horiz-adv-x="420" 
d="M416 734q2 -45 -39 -55q-2 -1 -75 -6q-6 0 -8 -1q-61 -29 -90 -40q-11 -89 -2 -238l40 27q24 28 40 27q33 -2 66.5 -32.5t33.5 -63.5q0 -13 -6 -24q-11 -22 -55 -24q-50 -2 -67 -16q-14 -5 -26.5 -17.5l-23.5 -24.5q-8 -67 0 -188q5 -13 5 -25q0 -32 -35 -50
q-13 -7 -31 -7q-32 0 -59 19q-30 20 -36 51q-2 14 4.5 21t13.5 13q-6 436 0 644q-1 10 -1 18q0 52 63 52q11 0 24 -2q22 -3 30 -8q2 -1 14 -14l64 22l21.5 13.5t36.5 7.5q29 0 63 -25t35 -54z" />
    <glyph glyph-name="G" unicode="G" horiz-adv-x="490" 
d="M492 294q-14 -18 -47 -19q-28 -1 -55 -1q-13 -104 -49 -189q-38 -88 -81 -106q-7 -3 -16 -3q-40 0 -91 45q-56 50 -92 127q-41 92 -41 198q1 175 49 309q57 160 155 161q73 1 119 -92q35 -69 49 -178q16 -20 16 -44q0 -25 -16 -40.5t-40 -15.5q-27 0 -57.5 13.5
t-40.5 28.5q-6 9 -6 19q0 -5 8 39q-14 116 -32 116q-16 0 -41 -110q-27 -115 -27 -204q0 -63 20.5 -142.5t35.5 -79.5q14 0 32 43t24 87q-24 11 -48 38q-27 30 -27 55q0 16 14 27.5t47 12.5q89 2 98 3l31.5 14.5t29.5 7.5q31 0 60.5 -28t29.5 -59q0 -19 -11 -33z" />
    <glyph glyph-name="H" unicode="H" horiz-adv-x="500" 
d="M438 332q-4 -80 2 -230q0 -10 7 -28t7 -26q0 -20 -34 -34q-7 -3 -18 -3q-33 0 -70 18q-44 21 -44 50q0 13 9.5 34l18.5 41v172l-134 -28q0 -49 1 -138t1 -90q0 -12 6.5 -37t6.5 -36q0 -20 -13.5 -32.5t-36.5 -12.5q-24 0 -49 13t-33.5 26.5t-8.5 19.5q0 2 8 21
q0 43 -1 140t-1 124q-1 3 -24 43q-14 23 -10 43q2 11 12 18l20 14q-3 238 2 322q-9 18 -9 29q0 22 31 37q13 6 37 6q78 0 95 -42q3 -8 3 -15q0 -14 -17.5 -41.5t-17.5 -45.5q-6 -160 -2 -238q98 17 130 26q-9 122 2 286q-9 25 -9 41q0 30 37 49q8 4 23 4q35 0 68 -17
q38 -20 39 -51q1 -14 -17.5 -35t-18.5 -37q-2 -144 2 -242q16 -13 32.5 -38t16.5 -41t-17 -24z" />
    <glyph glyph-name="I" unicode="I" horiz-adv-x="240" 
d="M214 8q-9 -25 -52 -25q-12 0 -26 2q-82 13 -96 49q-3 7 -3 14q0 21 23 42q-4 150 -18 612q1 13 -7 30.5t-8 25.5q0 18 23 38q16 14 45 14q33 0 70 -17q44 -21 44 -51q0 -7 -21 -54l10 -606q0 -12 9 -30.5t9 -29.5q0 -7 -2 -14z" />
    <glyph glyph-name="J" unicode="J" horiz-adv-x="430" 
d="M419 732q-1 -22 -16.5 -34.5t-15.5 -23.5q-3 -5 -5 -269q-3 -281 -19 -363q-5 -27 -41 -52.5t-73 -20.5q-47 6 -101 71q-26 33 -107 158l-26.5 22.5t-13.5 39.5q0 18 43 29q36 9 77 9q25 0 30 -4q18 -15 21 -43q4 -37 11 -49q8 -23 17.5 -47t22.5 -25q29 -1 29 347
q0 114 -3 231q0 10 -1.5 28.5t-1.5 25.5q0 44 53 54q23 4 70 -23q51 -30 50 -61z" />
    <glyph glyph-name="K" unicode="K" horiz-adv-x="560" 
d="M570 108q3 -11 3 -23q0 -42 -33 -78t-71 -36q-12 0 -23 4q-36 13 -48 58q-13 52 -32 67l-180 140l12 -120q1 -14 10 -38.5t9 -36.5q0 -21 -19.5 -39t-47.5 -18q-31 0 -66 23q-38 26 -38 55q0 11 11 24t11 24l-26 590q-1 13 -10.5 31t-9.5 27q0 19 26 42q6 5 32 5
q89 0 112 -41q6 -11 6 -21t-9 -27.5t-9 -29.5v-244l168 298q10 26 19 52q13 27 46 27q32 0 65 -23q37 -26 32 -56q-4 -22 -19 -30q-19 -11 -23 -18l-202 -352l232 -176l43.5 -27t28.5 -33z" />
    <glyph glyph-name="L" unicode="L" horiz-adv-x="420" 
d="M422 154q6 -12 6 -27q0 -25 -15.5 -48t-36 -30.5t-58.5 -7.5t-55 -5t-39 -31q-19 -21 -66 -28q-29 -4 -59 20t-41 59q-2 7 -2 13q0 13 14.5 29t13.5 28l-42 606q0 4 -10.5 18.5t-10.5 24.5q0 14 15 27q21 19 60 19q33 0 63.5 -14t38.5 -33q5 -11 5 -19q0 -9 -9 -18
t-8 -17l36 -552l60 24l38.5 17.5t32.5 8.5q36 0 69 -64z" />
    <glyph glyph-name="M" unicode="M" horiz-adv-x="930" 
d="M908 2q-23 -33 -67 -33q-40 0 -83 26q-39 23 -44 45q-2 8 -2 15q0 16 13.5 36t12.5 35l-30 336l-172 -388q-3 -8 -3 -19q0 -8 2.5 -25t2.5 -26q0 -23 -18 -35q-26 -18 -61 -18t-63.5 18.5t-35.5 48.5q-2 9 -2 16t2 17t2 15q0 6 -2 12l-144 384l14 -362q1 -14 7 -39.5
t6 -37.5q0 -37 -55 -58q-7 -2 -17 -2q-31 0 -64 21q-38 23 -49 60q-2 6 -2 11q0 10 12 22.5t12 22.5l-12 570q0 14 -10 35.5t-10 32.5q0 17 18 36.5t63 19.5q66 0 105 -32q22 -18 22 -38q0 -3 -1 -9v-9q0 -9 3 -16l198 -480l222 510q4 9 4 21q0 4 -1 12v12q0 23 21 39
q17 13 45 13q43 0 83.5 -26t39.5 -59q-1 -16 -15 -26.5t-13 -19.5l42 -590q1 -10 16 -34.5t15 -39.5q0 -10 -7 -20z" />
    <glyph glyph-name="N" unicode="N" horiz-adv-x="600" 
d="M580 72q-2 -36 -25 -60.5t-57 -22.5q-85 5 -116 83q-5 12 -6 39q-2 24 -10 39q-37 57 -68 110q-76 128 -112 214q-4 -102 16 -384q0 -6 10 -27t10 -35q0 -18 -12 -33q-17 -22 -51 -22q-36 0 -70.5 22.5t-38.5 52.5q-3 24 13 37t15 23l-30 612q0 5 -2 15t-2 15
q0 15 15.5 24t43.5 9q75 0 107 -39q9 -10 9 -24q0 -6 -2 -16t-2 -14q0 -3 1 -6q20 -102 210 -428l-12 488q0 9 -7 20t-7 17q0 13 20 33q11 12 34 12q37 0 76 -26t40 -56q1 -19 -15.5 -30t-16.5 -22l14 -548q0 -14 14.5 -35.5t13.5 -36.5z" />
    <glyph glyph-name="O" unicode="O" horiz-adv-x="540" 
d="M513 420q7 -134 -46 -276.5t-113 -160.5q-24 -8 -47 -6l-47 6q-206 24 -227 437q-6 112 36 240q39 119 81 147q10 7 22 7q9 0 28 -5.5t29 -5.5q12 0 43.5 5.5t46.5 5.5q14 0 23 -4q155 -63 171 -390zM378 420q-10 125 -27 188q-28 106 -83 106q-15 0 -31.5 -8t-43.5 -103
q-28 -104 -28 -183q0 -103 36 -216.5t69 -113.5q31 0 69 102q40 106 40 201q0 14 -1 27z" />
    <glyph glyph-name="P" unicode="P" horiz-adv-x="450" 
d="M450 756q15 -22 15 -59q0 -87 -95 -268q-99 -191 -162 -191q-16 0 -24 18q-3 -23 -3 -58q0 -60 7 -138q0 -7 5 -23t5 -24q0 -19 -26 -32q-12 -6 -32 -6q-33 0 -62 15q-33 16 -38 42q-1 7 -1 12q0 15 10.5 27.5t10.5 16.5l-18 648q0 3 -3 12t-3 14q0 18 26 28q20 8 42 8
q7 0 56 -6q6 0 59.5 21.5t94.5 21.5q80 0 136 -79zM301 716q-24 0 -61.5 -25.5t-65.5 -58.5l4 -230q44 33 95.5 132.5t51.5 151.5q0 30 -24 30z" />
    <glyph glyph-name="Q" unicode="Q" horiz-adv-x="580" 
d="M610 -11q6 -34 -21.5 -56.5t-62.5 -17.5q-28 4 -65 45q-61 66 -73 76q-21 -19 -43 -36.5t-65 -18.5q-131 -4 -197 134q-53 112 -53 281q0 134 68.5 271t135.5 137q13 0 28.5 -5t25.5 -5q14 -1 34 4.5t44 5.5q77 0 125 -115q43 -102 43 -227q0 -102 -11 -167
q-16 -96 -61 -175l96 -86l29 -12q19 -9 23 -33zM396 438q0 98 -18 167q-24 89 -70 89q-40 0 -84 -100.5t-44 -197.5q0 -114 20 -198q26 -104 74 -106q14 0 21 10t13 20l-50 42l-22.5 12t-13.5 24q-4 26 23 48t55 22q11 0 18 -4q4 -2 5.5 -10t4.5 -10l34 -28q34 89 34 220z
" />
    <glyph glyph-name="R" unicode="R" horiz-adv-x="570" 
d="M594 66q1 -6 1 -11q0 -30 -35 -50.5t-73 -20.5q-23 0 -37 9q-10 6 -17.5 23.5t-16.5 23.5l-221 148l9 -92q1 -7 15.5 -29t14.5 -37q0 -22 -28 -41q-17 -12 -43 -12q-37 0 -69 20q-35 20 -42 51q-1 6 -1 10q0 14 13.5 24.5t13.5 19.5l-32 570q-1 13 -11 34.5t-10 31.5
q0 26 34 42q28 14 57 14q19 0 33 -5.5t19 -17t12 -11.5q1 -1 61 22q70 26 123 26q77 0 124 -54q13 -15 13 -42q0 -73 -84 -206q-80 -125 -165 -200l258 -180q1 -1 50 -24q28 -13 34 -36zM326 687q-22 0 -70 -42q-10 -8 -74 -69l-2 -179q62 68 112 151.5t50 119.5
q0 19 -16 19z" />
    <glyph glyph-name="S" unicode="S" horiz-adv-x="490" 
d="M472 166q0 -78 -49.5 -136.5t-122.5 -58.5q-147 0 -216 140q-75 49 -75 83q0 17 21 28q41 22 75 22q74 0 99 -88l25 -48t35 -24q59 0 59 84q0 75 -27 101q-12 11 -96 46q-67 28 -108 96q-37 62 -38 129q-1 108 54 192q58 90 144 90q100 0 146 -80q30 -50 34 -124
q11 -38 11 -69q0 -20 -5 -33q-15 -37 -59 -37q-33 0 -60 24q-30 26 -37 73q-3 16 6.5 32t9.5 18t-2 4q1 5 1 10q0 30 -35 28q-34 -2 -53 -45q-17 -37 -15 -85q3 -85 112 -136q86 -40 119 -79q47 -56 47 -157z" />
    <glyph glyph-name="T" unicode="T" horiz-adv-x="480" 
d="M468 690q-11 -21 -47 -21q-47 0 -55 -3l-86 -36q-3 -76 -3 -167q0 -185 11 -379q0 -14 10.5 -36.5t10.5 -32.5q0 -13 -9 -24q-22 -30 -66 -30q-38 0 -72.5 20.5t-39.5 48.5q-3 15 15.5 34t18.5 36q-7 199 -7 348q0 90 3 144q-1 0 -28 -10q-18 -7 -29 -7q-16 0 -29 11
q-32 27 -40 36q-16 18 -16 38q0 7 2 16q3 14 146 57q154 47 166 55q11 4 24.5 18t29.5 16q22 2 58 -29q40 -35 40 -73q0 -15 -8 -30z" />
    <glyph glyph-name="U" unicode="U" horiz-adv-x="540" 
d="M507 769q11 -20 11 -33l-12 -36q-1 -113 -3 -225q-11 -208 -54 -333q-60 -172 -177 -178q-137 -7 -196 213q-41 151 -41 380q0 84 4 125q-10 31 -10 52q0 32 20 53q13 14 45 14q39 0 70 -18q36 -21 38 -54q1 -17 -10.5 -36t-9.5 -32q-4 -13 4 -153q10 -157 26 -263
q21 -139 47 -138q45 2 75 210q24 167 24 310q0 28 -2 40q2 13 -15 38t-17 42q0 18 14 37q21 30 77 30q68 0 92 -45z" />
    <glyph glyph-name="V" unicode="V" horiz-adv-x="540" 
d="M492 684l-162 -588q-1 -4 -1 -9q0 -7 2.5 -25t2.5 -28q0 -30 -17.5 -48.5t-42.5 -18.5q-37 0 -81 39.5t-44 75.5q0 6 5 22q4 13 2 22l-114 570q-1 7 -20.5 22t-19.5 32q0 45 85 45q37 0 67.5 -12t37.5 -33q2 -6 2 -12q0 -9 -8 -26t-6 -28l72 -376l102 400q2 9 2 21v13.5
v12.5q0 31 28 49q18 11 44 11q40 0 75 -21.5t35 -50.5q0 -8 -4 -17.5t-21.5 -20t-20.5 -21.5z" />
    <glyph glyph-name="W" unicode="W" horiz-adv-x="950" 
d="M930 804q10 -17 10 -31q0 -13 -11 -32q-14 -24 -17 -35l-148 -486q-7 -21 -7 -50q0 -13 2 -37t2 -35q0 -55 -36.5 -77.5t-77.5 -22.5q-54 0 -95 38q-25 23 -25 59q0 11 3.5 35.5t3.5 38.5q0 17 -4 31l-86 304l-102 -354q-3 -12 10.5 -29t13.5 -27q-1 -81 -42 -129
q-21 -24 -57 -24q-54 0 -81 42q-9 14 -9 34q-1 30 -3 39l-144 622q-2 10 -12 30q-9 17 -9 28q0 27 31 45q26 15 56 15q32 0 54 -16q18 -13 20 -41l4 -55l72 -386l114 416q2 8 -2.5 22t-4.5 21q0 13 11 27q19 25 70 25q61 0 88 -35q11 -14 11 -29q0 -7 -3.5 -21t-3.5 -21
t2 -13l112 -392l122 410q2 6 4 55q2 33 20 47q33 26 78 26q46 0 66 -32z" />
    <glyph glyph-name="X" unicode="X" horiz-adv-x="610" 
d="M602 50q-5 -84 -82 -84q-31 0 -62 14.5t-44 31.5q-8 11 -8 22q0 8 5.5 20.5t5.5 18.5t-3 11l-120 206l-114 -236q-6 -13 -2 -37q4 -18 -8 -30q-16 -16 -51 -16q-41 0 -77 20q-39 20 -39 49q0 7 3 14q4 12 17 19.5t17 14.5l170 332l-162 300q-3 6 -18.5 12.5t-17.5 19.5
q-3 26 43 49q43 22 85 22q16 0 26 -5q16 -8 20 -33q6 -35 106 -235l82 182q4 9 9 37q4 22 15 33q16 15 49 15q39 0 70 -19q34 -22 31 -54q-3 -26 -22 -36q-24 -11 -28 -20l-130 -268l190 -318q3 -6 27 -22q18 -11 17 -30z" />
    <glyph glyph-name="Y" unicode="Y" horiz-adv-x="590" 
d="M608 748q2 -30 -28 -56q-37 -32 -44 -50l-190 -478l10 -102q5 -46 5 -38q0 -34 -39 -47q-16 -6 -36 -6q-44 0 -75 22q-35 24 -29 61q3 17 22 44q18 24 16 44l-10 110l-148 438q-4 13 -25 43q-16 25 -16 40q0 10 5 19q13 25 81 25q44 0 55 -7q33 -21 36 -50.5l6 -57.5
l94 -292l122 316q19 49 25 61.5t29 22.5q17 8 38 8q36 0 65 -20t31 -50z" />
    <glyph glyph-name="Z" unicode="Z" horiz-adv-x="600" 
d="M598 708q-10 -15 -41.5 -24t-40.5 -24l-326 -534h176q14 0 33 16.5t37 15.5q44 -3 73 -33t29 -66q0 -41 -36 -64q-9 -6 -20 -6q-12 0 -40.5 9.5t-45.5 9.5h-264q-11 0 -32 -8.5t-30 -6.5q-31 6 -52 40q-18 31 -18 67q0 19 6.5 32.5t32 22t33.5 21.5l302 500l-164 -22
q-10 -1 -27 -9.5t-28 -8.5q-10 0 -23 6q-45 22 -45 86q0 31 14 45t32 14q7 0 27 -4t32 -3l270 24q12 1 29 16t31 14q25 -2 53.5 -38t28.5 -67q0 -12 -6 -21z" />
    <glyph glyph-name="bracketleft" unicode="[" horiz-adv-x="390" 
d="M381 113q6 -10 6 -20q0 -27 -59 -49q-26 -5 -86 -26q-11 -10 -23 -19q-20 -14 -71 -22q-29 -4 -59 20t-41 59q-2 7 -2 13q0 13 14.5 29t13.5 28l-42 606q0 4 -10.5 18.5t-10.5 24.5q0 14 15 27q20 17 50 17q20 0 39 -7q17 1 26 4l75 23q40 12 54 12t24 -6q31 -18 31 -66
q0 -25 -13 -36q-8 -7 -19 -7q-4 0 -24 4q-16 4 -27 1q-92 -22 -92 -33l39 -581q35 8 84 26q37 14 51 14q30 0 57 -54z" />
    <glyph glyph-name="backslash" unicode="\" horiz-adv-x="522" 
d="M510 60q1 -33 -41 -57q-37 -21 -61 -16q-15 3 -27 39q-17 56 -23 66l-308 584q-6 12 -30 32q-19 18 -20 30q0 30 29 55q29 22 60 22q13 0 23 -5q15 -8 21 -32q7 -33 11 -40l330 -618q3 -5 22 -28q13 -16 14 -32z" />
    <glyph glyph-name="bracketright" unicode="]" horiz-adv-x="390" 
d="M360 26q-20 -18 -50 -18q-20 0 -39 7q-16 0 -26 -3l-84 -22q-44 -12 -54 -12q-14 0 -24 6q-33 19 -33 79q0 26 12 36q8 7 19 7q4 0 24 -4q16 -3 27 -1q111 27 110 35l-49 574q-28 -3 -68 -23.5t-56 -20.5q-28 0 -50 43q-7 13 -7 24q0 28 48 46q76 34 178 73
q29 4 59 -20.5t41 -59.5q2 -7 2 -14q0 -13 -14.5 -28.5t-13.5 -27.5l42 -606q0 -5 10.5 -19.5t10.5 -24.5q0 -13 -15 -26z" />
    <glyph glyph-name="asciicircum" unicode="^" horiz-adv-x="300" 
d="M289 699q3 -6 3 -15q0 -16 -8.5 -30.5t-18.5 -15.5q-11 -1 -20 10t-17 23l-73 87l-77 -90q-17 -21 -34 -21q-6 0 -13 3q-26 10 -26 37q0 12 5 23.5t15 12t20 1.5q6 1 9 4l49 57q32 38 52 38q17 0 40 -27l54 -68q5 -6 22 -13q14 -6 18 -16z" />
    <glyph glyph-name="underscore" unicode="_" horiz-adv-x="490" 
d="M463 -129q-9 -7 -20 -7q-6 0 -23 3t-27 2l-253 -41q-11 -2 -30.5 -10.5t-30.5 -8.5q-24 0 -42.5 23t-18.5 48q0 19 12 34q4 4 31 5q35 0 47 3l259 45q6 1 29 7q18 4 28 4q12 0 21 -5q30 -18 30 -66q0 -25 -12 -36z" />
    <glyph glyph-name="grave" unicode="`" horiz-adv-x="210" 
d="M204 650q-3 -15 -20 -26.5t-36 -11.5q-12 0 -22 5q-2 1 -25.5 41.5t-46.5 54.5q-4 6 -28 16q-20 8 -20 21q0 19 20 43.5t39 23.5t31 -11q6 -5 21 -26l60.5 -76t26.5 -54z" />
    <glyph glyph-name="a" unicode="a" horiz-adv-x="460" 
d="M446 42q-15 -49 -74 -49q-20 0 -32 7q-16 11 -22 44q-12 57 -24 89q-3 -55 -60 -111.5t-115 -56.5q-73 0 -101 97q-10 36 -10 68q0 93 95 159l157 91q4 17 4 33q0 31 -17 36.5t-29 5.5q-21 0 -34.5 -13.5l-25.5 -25.5q-12 -8 -31 -37q-15 -23 -33 -25q-26 -3 -47 18
t-21 49q0 16 8 29q23 38 69 66q70 42 175 42q67 0 92 -64q16 -43 24 -161q9 -143 22 -209q2 -13 17 -33t15 -35q0 -7 -2 -14zM272 288l-59.5 -33t-54.5 -45q-36 -41 -36 -70q0 -24 18 -50q10 -14 22 -14q26 0 56.5 58t53.5 154z" />
    <glyph glyph-name="b" unicode="b" horiz-adv-x="430" 
d="M412 270q0 -115 -29 -187q-38 -94 -121 -94q-62 0 -108 65q1 -8 6 -23t5 -22q0 -9 -5 -14q-13 -16 -52 -16q-62 0 -74 27q-4 9 -4 17q0 10 8 25.5t8 26.5v570q0 13 -6.5 31.5t-6.5 29.5t4 23q12 36 62 36q61 0 82 -45q5 -10 5 -20q0 -13 -13 -38t-13 -41v-129
q43 66 84 66q73 0 123 -95q45 -87 45 -193zM280 270q0 63 -11 113q-14 61 -37 61q-20 0 -40 -66q-20 -62 -20 -108q0 -61 18 -121q19 -65 42 -65q49 0 49 113v37q-1 25 -1 36z" />
    <glyph glyph-name="c" unicode="c" horiz-adv-x="380" 
d="M369 166q-1 -22 -19 -45q-28 -33 -36 -50q-63 -96 -130 -96q-79 0 -123 80q-39 73 -39 184q0 127 48 221q53 104 137 104q66 0 107 -73q34 -62 34 -135q0 -20 -3 -35q-7 -34 -57 -34q-39 0 -60 22q-10 11 -10 51q0 10 1 29v29q0 45 -16 45q-17 0 -36 -98.5t-19 -184.5
q0 -100 30 -100q39 0 58 63q8 9 9 36q0 24 12 31.5t35 7.5q30 0 52 -13q26 -15 25 -39z" />
    <glyph glyph-name="d" unicode="d" horiz-adv-x="430" 
d="M396 6q-12 -27 -74 -27q-39 0 -52 16q-5 5 -5 14q0 7 5 22t6 23q-46 -65 -108 -65q-83 0 -121 94q-29 72 -29 187q0 106 45 193q50 95 123 95q41 0 84 -66v129q0 16 -13 41t-13 38q0 10 5 20q21 45 82 45q50 0 62 -36q4 -12 4 -23t-6.5 -29.5t-6.5 -31.5v-570
q0 -11 8 -26.5t8 -25.5q0 -8 -4 -17zM258 270q0 46 -19 108q-21 66 -41 66q-23 0 -37 -61q-11 -50 -11 -113q0 -11 -1 -36v-37q0 -113 49 -113q23 0 42 65q18 60 18 121z" />
    <glyph glyph-name="e" unicode="e" horiz-adv-x="380" 
d="M390 105q-8 -38 -54 -81q-7 -11 -55 -29q-55 -21 -95 -18q-75 5 -118 86q-39 75 -39 184q0 118 44 207q49 98 131 110q16 2 31 2q119 0 131 -146q6 -67 -53 -146q-64 -87 -164 -122q11 -40 17 -52q14 -25 38 -25q23 0 49 18q22 15 30 29q4 2 8 22.5t21 29.5q6 3 14 3
q24 0 46.5 -23.5t17.5 -48.5zM233 457q-40 0 -65 -57q-33 -76 -27 -150q47 15 87 70t40 98q0 39 -35 39z" />
    <glyph glyph-name="f" unicode="f" horiz-adv-x="360" 
d="M390 474q-9 -26 -36.5 -29t-53.5 -5l-72 -20l-1 -325q0 -26 19 -49t19 -35q0 -7 -3 -14q-14 -35 -59 -35q-29 0 -53.5 14.5t-29.5 35.5q-6 26 -6 66v312q-20 -9 -42 -6q-69 9 -69 56q0 14 9 30q6 10 36 15q46 8 60 13q2 150 26 215q33 91 130 121q7 2 16 2q28 0 58.5 -18
t27.5 -32q-4 -21 -36 -31q-38 -13 -50 -27q-36 -44 -47 -92q-9 -37 -7 -106q7 2 49 15q27 8 49 7q25 -1 46.5 -21t21.5 -43q0 -7 -2 -14z" />
    <glyph glyph-name="g" unicode="g" horiz-adv-x="420" 
d="M378 531q2 -86 9 -283q4 -139 4 -199q0 -132 -21 -180t-85 -53q-80 -7 -141 42q-30 9 -38 14q-17 10 -22 34q-9 47 74 47q21 0 40 -5q14 -3 31 -23.5t32 -21.5q29 -2 29 82q0 36 -5 117q-36 -61 -52 -79q-33 -34 -77 -34q-62 0 -100 86q-35 79 -35 192q0 116 37 196
q42 90 116 92q40 1 59 -16t37 -35q-13 36 6 54q11 11 33 11q21 0 42 -11t27 -27zM258 276q4 58 -14 110q-20 58 -52 58q-26 0 -46 -58q-18 -52 -20 -110q-2 -61 9 -110q14 -58 39 -58q22 0 51 56.5t33 111.5z" />
    <glyph glyph-name="h" unicode="h" horiz-adv-x="470" 
d="M438 84q6 -25 6 -32q0 -21 -24.5 -34.5t-52.5 -13.5q-43 0 -55 32q-5 13 -5 22q0 13 11.5 28t11.5 28q12 52 12 150q0 170 -24 174q-18 3 -58 -57q-42 -63 -70 -141q-33 -92 -28 -162q-3 -6 -3 -12q0 -9 8 -25.5t8 -26.5t-7 -19q-27 -39 -54 -39q-28 0 -54 44
q-15 26 -15 299q0 100 5 455q0 6 -1 18.5t-1 19.5q1 10 6 18q11 21 47 21q32 0 58.5 -17t20.5 -40q-1 -6 -9.5 -14t-8.5 -16v-322q57 128 168 136q60 4 96 -90q33 -86 33 -211q0 -96 -21 -173z" />
    <glyph glyph-name="i" unicode="i" horiz-adv-x="200" 
d="M174 750q3 -3 3 -10q0 -9 -6 -31q-7 -27 -9 -37q2 9 2 -44q0 -21 -12.5 -27.5t-31.5 -6.5q-27 0 -55 11q-34 14 -34 37q0 7 6 19.5t7 20.5q2 7 0 40q-2 25 10 34q16 12 57 12q45 0 63 -18zM187 506q0 -14 -15.5 -43.5t-15.5 -48.5v-294q0 -20 11 -56.5t11 -50.5
q0 -20 -16 -30q-25 -16 -54 -16q-38 0 -54 26q-21 32 -21 191q0 38 1.5 118.5t1.5 117.5q0 14 -3 36.5t-3 32.5q0 33 24 57q10 10 37 10t54 -8.5t34.5 -19.5t7.5 -22z" />
    <glyph glyph-name="j" unicode="j" horiz-adv-x="210" 
d="M168 600q-7 -16 -39 -16q-23 0 -44 10q-27 12 -27 32q0 6 3 17t3 15q0 6 -2 22t-2 24q0 23 12 34q16 16 42 16q21 0 40 -13t19 -34q0 -9 -6 -29t-5 -30q-1 -8 4 -18.5t5 -16.5t-3 -13zM168 395q0 -311 1 -214q-2 -150 -26 -232q-32 -111 -103 -120q-31 -4 -68 13.5
t-37 40.5q0 8 6 16q11 14 36.5 10t34.5 2q32 22 32 361q0 79 -2 190q0 9 -6 31.5t-6 33.5q0 35 56 35q48 0 70 -22q18 -18 18 -52q0 -16 -3 -46.5t-3 -46.5z" />
    <glyph glyph-name="k" unicode="k" horiz-adv-x="480" 
d="M498 78q1 -7 1 -14q0 -60 -67 -81q-13 -4 -23 -4q-18 0 -33 17q-23 25 -28 28l-180 126v-84q0 -9 5.5 -22.5t5.5 -20.5q0 -11 -11 -23q-25 -26 -72 -26q-45 0 -58 30q-6 14 -4 29q4 26 4 35v658q-1 18 4 54q9 22 55 22q60 0 77 -22q9 -12 9 -26q0 -11 -7.5 -34t-7.5 -36
q-2 -58 0 -327l144 141q12 12 31 43q11 18 33 24q6 2 14 2q29 0 59.5 -22t30.5 -47q0 -14 -20 -34t-40 -38l-166 -172l178 -128q2 -2 40 -16q22 -9 26 -32z" />
    <glyph glyph-name="l" unicode="l" horiz-adv-x="200" 
d="M174 -5q-20 -38 -74 -38q-50 0 -70 34q-6 10 -6 22q0 10 7 33t7 38l-4 646v54q3 13 28 21.5t53 8.5q41 0 52 -15t11 -31q0 -11 -8 -36.5t-8 -41.5v-600q0 -15 8.5 -39.5t8.5 -35.5t-5 -20z" />
    <glyph glyph-name="m" unicode="m" horiz-adv-x="720" 
d="M706 0q-13 -37 -59 -37q-58 0 -86 40q-15 22 -15 151v53q1 35 1 49q0 70 -7 72q-15 6 -102 -280q0 -1 -4 -48q-2 -29 -20 -39q-13 -7 -29 -7q-29 0 -56 19t-34 45q-10 37 -9 146q2 159 2 153q-1 42 -6 43q-23 -38 -40 -73q-41 -84 -47 -140q-5 -12 -1 -47q4 -30 -9 -41
t-35 -11q-24 0 -48.5 13.5t-35.5 30.5q-16 25 -18 146v236q-1 10 -8 28t-7 27t5 17q13 20 66 20q65 0 78 -32q3 -7 3 -14q0 -9 -9.5 -26t-9.5 -28v-114l79 160l11.5 26t16.5 23t37 10q40 0 80.5 -18t41.5 -43q1 -26 -7.5 -39.5t-8.5 -22.5l-2 -216q16 36 58 170
q33 102 50 114q22 16 65 16q80 0 83 -46q-1 -122 0 -408q0 -11 20 -26.5t20 -32.5q0 -8 -4 -19z" />
    <glyph glyph-name="n" unicode="n" horiz-adv-x="490" 
d="M480 64q-2 -22 -29 -37.5t-60 -15.5q-49 0 -67 31q8 308 -18 312q-25 4 -122 -276v-60q-1 -36 -19.5 -51t-39.5 -15q-36 0 -77 39q-12 10 -13 152q1 -87 1 323q0 9 -2 24.5t-2 22.5q0 19 10 33q12 18 38 18q27 0 56.5 -16.5t35.5 -31.5q4 -10 4 -20t-8 -28t-8 -30v-138
q63 134 95 177q57 74 129 69q43 -3 61 -80q14 -58 15 -172v-180q2 -7 14 -25q7 -10 6 -25z" />
    <glyph glyph-name="o" unicode="o" horiz-adv-x="410" 
d="M330 516q67 -68 67 -229q0 -125 -47 -213q-53 -99 -146 -99q-92 0 -142 89q-44 78 -44 198q0 106 34 190q36 90 92 106q29 8 60 8q77 0 126 -50zM216 468q-33 3 -57 -62q-21 -59 -21 -124q0 -94 8 -133q14 -70 58 -77q28 -4 52 77q23 78 23 167q0 146 -63 152z" />
    <glyph glyph-name="p" unicode="p" horiz-adv-x="430" 
d="M412 276q0 -106 -45 -193q-50 -94 -123 -94q-41 0 -84 65v-128q0 -16 13 -41t13 -38q0 -10 -5 -20q-21 -45 -82 -45q-50 0 -62 36q-4 12 -4 23t6.5 29.5t6.5 31.5v569q0 11 -8 26.5t-8 25.5q0 8 4 17q12 28 74 28q39 0 52 -16q5 -6 5 -15q0 -7 -5 -22t-6 -23
q46 66 108 66q83 0 121 -94q29 -73 29 -188zM286 276q0 95 -4 121q-10 65 -50 65q-23 0 -41.5 -62.5t-18.5 -123.5q0 -46 20 -108q20 -66 40 -66q24 0 40 61q14 53 14 113z" />
    <glyph glyph-name="q" unicode="q" horiz-adv-x="430" 
d="M402 540q4 -9 4 -17q0 -10 -8 -25.5t-8 -26.5v-569q0 -13 6.5 -31.5t6.5 -29.5t-4 -23q-12 -36 -62 -36q-61 0 -82 45q-5 10 -5 20q0 13 13 38t13 41v128q-43 -65 -84 -65q-73 0 -123 94q-45 87 -45 193q0 115 29 188q38 94 121 94q62 0 108 -66q-1 8 -6 23t-5 22
q0 9 5 15q13 16 52 16q62 0 74 -28zM264 276q0 61 -18.5 123.5t-41.5 62.5q-49 0 -49 -113v-37q1 -25 1 -36q0 -63 11 -113q14 -61 37 -61q20 0 41 66q19 62 19 108z" />
    <glyph glyph-name="r" unicode="r" horiz-adv-x="380" 
d="M408 510q-4 -21 -38 -29q-40 -10 -51 -23l-163 -188v-152q0 -22 12.5 -44.5t12.5 -34.5t-7 -27q-17 -38 -69 -38q-36 0 -57 23q-14 15 -14 38q0 8 2 26t2 29v374q0 9 -8 22t-8 21q0 6 4 14q13 24 81 24q53 0 60 -25q3 -10 3 -17q0 -11 -8 -17t-8 -12l2 -36l86 91l31.5 34
t38.5 19q34 3 65.5 -15t31.5 -47q0 -5 -1 -10z" />
    <glyph glyph-name="s" unicode="s" horiz-adv-x="370" 
d="M354 134q0 -70 -50 -119.5t-118 -49.5q-43 0 -89 41q-36 33 -65 81q-25 42 -22 53q11 25 69 25q24 0 38 -7q24 -13 27 -33q3 -23 10 -29q21 -32 38 -32q13 0 24.5 17.5t11.5 41.5q0 15 -5 30t-54 46q-59 37 -84 65q-43 48 -43 112q0 75 44 131.5t112 56.5q70 0 107 -53
q30 -43 25 -87q11 -12 11 -40q0 -30 -22 -51t-45 -21q-34 0 -59 45q-7 12 -7 32q0 9 1.5 25.5t1.5 23.5q0 26 -19 26q-29 0 -29 -57q0 -58 38 -93q15 -14 65 -40q43 -22 61 -45q27 -35 27 -95z" />
    <glyph glyph-name="t" unicode="t" horiz-adv-x="360" 
d="M344 454q-8 0 -25 6.5t-26 6.5q-7 0 -14 -3l-37 -19v-342q0 -19 20.5 -49t16.5 -48q-5 -22 -29.5 -35t-52.5 -13q-53 0 -73 47q-6 14 -7 89q-1 50 1 156q2 120 2 152q-6 -2 -20 -13.5t-28 -11.5q-11 0 -28 6q-70 24 -70 49q0 6 3 13q7 16 26 18q29 4 35 7q23 9 84 43v87
q0 10 -5.5 26.5t-5.5 24.5q0 9 5 17q26 40 70 40q51 0 72 -40q8 -16 8 -26q0 -12 -12 -25t-12 -24v-49q18 8 40 27q17 14 29 14q5 0 11 -2q63 -17 63 -76q0 -19 -11.5 -36t-29.5 -17z" />
    <glyph glyph-name="u" unicode="u" horiz-adv-x="410" 
d="M392 488q2 -15 -6 -32q-10 -23 -12 -34q0 -208 -17 -289q-37 -170 -157 -170q-175 0 -175 319q0 86 13 182q-7 23 -7 41q0 29 19 49q16 17 47 17q25 0 47 -10.5t26 -24.5q2 -7 2 -14q0 -13 -11 -41.5t-9 -46.5q-10 -56 -10 -141q0 -86 11 -143q14 -66 39 -66q42 0 55 142
q7 71 7 226q0 10 -3 29t-3 28q0 24 18 33q10 5 28 5q33 0 61 -14q33 -17 37 -45z" />
    <glyph glyph-name="v" unicode="v" horiz-adv-x="440" 
d="M456 540q7 -13 7 -27q0 -20 -17 -50q-24 -40 -28 -51l-113 -318q-13 -66 -33 -94q-25 -38 -74 -35q-47 3 -63 19q-12 12 -12 37v11v10q0 18 -3 30l-102 366q-3 12 -26 39q-19 21 -15 39q10 44 71 44q13 0 24 -2q39 -8 77 -137l63 -241l104 320q8 24 13 33q9 16 25.5 25
t40.5 9q46 0 61 -27z" />
    <glyph glyph-name="w" unicode="w" horiz-adv-x="720" 
d="M724 546q3 -8 3 -15q0 -16 -18 -39q-22 -27 -27 -42l-110 -332q-5 -16 -5 -38v-22q1 -14 1 -21q0 -37 -25 -55t-57 -18q-48 0 -80 36q-16 18 -16 41q0 34 -2 43l-60 222l-58 -200q-3 -11 -5 -42q-2 -25 -11 -40q-38 -62 -93 -62q-19 0 -35 11q-20 13 -24 40l-8 53
l-88 342q-3 13 -18 48q-12 27 -12 46q0 13 5 26q9 28 72 28q35 0 47 -10q15 -13 16 -42q1 -44 2 -48l60 -240l84 246q2 7 2 14q0 6 -2.5 17.5t-2.5 17.5q0 22 24 34q20 11 44 11q33 0 55 -16q28 -20 31 -51.5t5 -62.5l60 -240l96 288q2 6 2 13q0 8 -3 21.5t-3 20.5q0 9 4 17
q15 27 79 27q60 0 71 -27z" />
    <glyph glyph-name="x" unicode="x" horiz-adv-x="410" 
d="M414 530q2 -17 -20 -32q-28 -20 -34 -30l-114 -198l96 -186l21 -31q12 -17 12 -31q0 -8 -3 -16q-17 -43 -63 -43q-19 0 -37 8q-25 11 -27.5 28.5t-4.5 34.5l-54 134l-60 -120q-6 -20 -14 -39.5t-31 -19.5q-29 0 -56 20q-29 23 -25 51q2 11 13.5 23.5t14.5 18.5l88 160
l-62 194q-3 10 -19.5 24.5t-18.5 27.5q-3 23 28 41q28 15 60 15q18 0 28 -6q22 -14 27 -35.5t9 -42.5l30 -94l66 118q9 19 19.5 39t28.5 27q11 5 25 5q26 0 50.5 -14.5t26.5 -30.5z" />
    <glyph glyph-name="y" unicode="y" horiz-adv-x="470" 
d="M468 498q3 -20 -10 -43q-23 -38 -24 -41l-130 -322q-40 -106 -50 -191q-2 -8 -1 -35q1 -22 -7 -33q-16 -21 -48 -21q-57 0 -74 43q-4 11 -4 19q0 10 8 22.5t10 20.5l24 125l-144 414q-3 8 -16 33q-9 18 -9 31q0 7 2 14q10 36 68 36q36 0 57 -12q25 -15 29 -53
q5 -62 7 -69l66 -208l102 258q1 3 9 44q5 25 21 34q10 6 23 6q29 0 58 -21.5t33 -50.5z" />
    <glyph glyph-name="z" unicode="z" horiz-adv-x="480" 
d="M472 474q-3 -22 -24 -40q-31 -28 -36 -34l-220 -298l150 24q11 2 30 10.5t31 8.5q28 0 48 -25.5t20 -54.5q0 -25 -13.5 -39.5t-34.5 -14.5q-5 0 -29 3q-19 2 -32 0l-186 -29q-12 -2 -36 -14q-20 -11 -36 -10q-37 2 -65 25.5t-28 55.5q0 6 1 12q4 24 20 38q25 22 28 26
l224 310l-108 -14q-8 -1 -21.5 -6t-21.5 -5q-9 0 -19 5q-57 26 -57 69q0 24 19 47q12 15 34 15q7 0 31 -4q20 -2 33 -1l156 18q12 1 33 8.5t33 7.5q30 0 55 -32t21 -62z" />
    <glyph glyph-name="braceleft" unicode="{" horiz-adv-x="390" 
d="M334 106q8 2 15 2q38 0 38 -49q0 -30 -17 -51q-19 -24 -49 -21q-130 13 -161 217q-6 40 -28 73q-26 40 -60 40q-53 0 -53 56q0 23 13 43.5t35 26.5q30 32 36 70q1 10 3 82q1 83 61 152q63 74 146 74q26 0 40 -20t14 -47q0 -23 -10 -40.5t-27 -17.5q-8 0 -17 5
q-33 0 -65 -33.5t-33 -65.5q-2 -128 -53 -213q41 -25 71 -76t37.5 -100.5t15.5 -67.5q15 -36 48 -39z" />
    <glyph glyph-name="bar" unicode="|" horiz-adv-x="204" 
d="M174 -5q-20 -38 -74 -38q-50 0 -70 34q-6 10 -6 22q0 10 7 33t7 38l-4 646v54q3 13 28 21.5t53 8.5q41 0 52 -15t11 -31q0 -11 -8 -36.5t-8 -41.5v-600q0 -15 8.5 -39.5t8.5 -35.5t-5 -20z" />
    <glyph glyph-name="braceright" unicode="}" horiz-adv-x="390" 
d="M339 443q22 -6 35 -26.5t13 -43.5q0 -56 -53 -56q-34 0 -60 -40q-22 -33 -28 -73q-31 -204 -161 -217q-30 -3 -49 21q-17 21 -17 51q0 49 38 49q7 0 15 -2q33 3 48 39q8 18 15.5 67.5t37.5 100.5t71 76q-51 85 -53 213q-1 32 -33 65.5t-65 33.5q-9 -5 -17 -5
q-17 0 -27 17.5t-10 40.5q0 27 14 47t40 20q83 0 146 -74q60 -69 61 -152q1 -72 3 -82q6 -38 36 -70z" />
    <glyph glyph-name="asciitilde" unicode="~" horiz-adv-x="330" 
d="M310 725q-44 -31 -70 -26l-102 22q-19 4 -43 -16q-25 -23 -37 -23q-20 0 -34.5 22t-14.5 43q0 22 13 36q7 9 26 20q25 14 45 14q7 0 13 -2l108 -30q17 -4 41.5 20.5t36.5 21.5q26 -6 26 -63q0 -25 -8 -39z" />
    <glyph glyph-name="Adieresis" unicode="&#xc4;" horiz-adv-x="495" 
d="M395 749q1 -4 -7 -41q0 -15 -10 -44q-8 -8 -28 -8q-52 0 -53 33q0 7 3.5 16t4.5 13.5t1 27.5q0 16 8.5 24.5t27.5 8.5q47 0 53 -30zM257 769q2 -9 -1.5 -19.5t-6.5 -21.5q1 -15 -9 -43q-7 -8 -27 -8q-52 0 -55 33q-1 6 3.5 16.5t5.5 12.5q2 6 1 28q-1 17 7.5 24.5
t26.5 7.5q49 0 55 -30zM470 163q-6 -10 -24 -11.5t-35 -2.5q6 -39 42 -90q21 -15 21 -40q0 -39 -49 -39q-46 0 -62 23q-6 8 -7 22q0 9 -1 18q-7 7 -43 93q-65 -9 -162 -27q-9 -23 -20 -67q2 -8 2 -15q0 -45 -50 -45q-23 0 -41.5 16.5t-18.5 38.5q0 21 18 37q60 306 146 504
q-2 10 -2 20q0 40 27 52q11 5 28 5q33 0 56 -11q30 -15 30 -43q0 -26 -15 -47q15 -139 66 -314q63 13 59 13q10 0 16 -5q28 -21 28 -53q0 -17 -9 -32zM278 224q-13 51 -43 194q-56 -123 -67 -213z" />
    <glyph glyph-name="Aring" unicode="&#xc5;" horiz-adv-x="495" 
d="M342 781q0 -40 -31.5 -72t-72.5 -32q-29 0 -50.5 21t-21.5 52q0 39 30.5 71.5t72.5 32.5q32 0 52.5 -21.5t20.5 -51.5zM470 163q-6 -10 -24 -11.5t-35 -2.5q6 -39 42 -90q21 -15 21 -40q0 -39 -49 -39q-46 0 -62 23q-6 8 -7 22q0 9 -1 18q-7 7 -43 93q-65 -9 -162 -27
q-9 -23 -20 -67q2 -8 2 -15q0 -45 -50 -45q-23 0 -41.5 16.5t-18.5 38.5q0 21 18 37q60 306 146 504q-2 10 -2 20q0 40 27 52q11 5 28 5q33 0 56 -11q30 -15 30 -43q0 -26 -15 -47q15 -139 66 -314q63 13 59 13q10 0 16 -5q28 -21 28 -53q0 -17 -9 -32zM275 805
q-17 0 -41.5 -23.5t-24.5 -42.5q0 -24 23 -24q26 0 49 30q17 22 17 37q0 23 -23 23zM278 224q-13 51 -43 194q-56 -123 -67 -213z" />
    <glyph glyph-name="Ccedilla" unicode="&#xc7;" horiz-adv-x="453" 
d="M420 211q-19 -48 -89 -136q-72 -92 -94 -86q-9 2 -45 -86.5t-43 -85.5q-21 6 -41 13q-30 14 -40 47q-2 8 29.5 63t28.5 58q-51 46 -80 150q-25 89 -26 185q-2 168 44 306q52 161 141 171q13 1 25 1q83 0 128 -74q33 -56 56 -178q17 -49 17 -60q0 -33 -41 -51
q-9 -4 -21 -4q-29 0 -64 19q-41 22 -41 48q0 4 14 39q-2 44 -16 83.5t-32 43.5q-28 7 -49 -111q-18 -98 -22 -216q-3 -89 10 -165q15 -87 45 -93q18 -3 43 45q24 44 40 104q-2 10 -2 19q0 59 72 59q16 0 32 -3q49 -10 49 -49q0 -32 -28 -56z" />
    <glyph glyph-name="Eacute" unicode="&#xc9;" horiz-adv-x="354" 
d="M257 776q2 -15 -10 -29q-24 -27 -25.5 -30t-12.5 -29q-6 -15 -17 -19q-7 -3 -17 -3q-43 0 -48 36q-3 24 11 51q16 31 47 49q10 6 23 6q18 0 32.5 -9t16.5 -23zM328 562q-25 -21 -75 -13q-23 -7 -42 -14q-45 -17 -59 -29q-5 -78 0 -191q5 3 24 7q9 16 33 16q23 0 53.5 -22
t30.5 -44q0 -6 -2 -11q-13 -33 -47 -34h-47q-11 -4 -45 -21q0 -72 5 -92q29 7 56 19l8 10q8 9 29 7q22 -2 46 -25.5t24 -48.5q0 -16 -11 -27q-19 -17 -69 -12l-75 -38q-4 -2 -20 -16q-12 -10 -22 -10q-43 0 -85 67q-4 7 7 42q-6 150 -6 263q0 89 3 233q-6 8 -6 16
q0 25 49 33q10 2 26 -6l20 -10l96 31q3 1 18 9q11 7 24 7q7 0 16 -2q17 -3 34 -27.5t17 -45.5q0 -14 -8 -21z" />
    <glyph glyph-name="Ntilde" unicode="&#xd1;" horiz-adv-x="480" 
d="M384 702q-44 -32 -70 -26l-102 22q-18 4 -43 -17.5t-36 -21.5q-19 0 -34.5 18t-15.5 38q0 18 13 33q8 9 26 19q25 15 45 15q7 0 13 -2l108 -30q17 -5 40.5 19t31.5 24q15 0 25 -22q7 -19 7 -36q0 -19 -8 -33zM464 58q-2 -29 -20.5 -49t-45.5 -18q-67 4 -92 67q-4 9 -5 31
q-1 19 -8 31l-55 88q-60 102 -89 171q-3 -82 13 -307q0 -5 8 -21.5t8 -28.5q0 -14 -10 -26q-14 -18 -40 -18q-30 0 -57.5 18t-30.5 42q-3 20 9.5 30t12.5 18l-24 490q0 4 -1.5 12t-1.5 11q0 12 12.5 19.5t35.5 7.5q59 0 85 -31q7 -8 7 -19q0 -5 -1.5 -12.5t-1.5 -10.5
q0 -4 1 -6q9 -83 168 -342l-10 390q0 7 -5.5 16t-5.5 14q0 10 16 26q9 9 27 9q30 0 61 -20.5t32 -44.5q1 -15 -12.5 -24t-13.5 -17l12 -439q0 -12 11.5 -28.5t10.5 -28.5z" />
    <glyph glyph-name="Odieresis" unicode="&#xd6;" horiz-adv-x="432" 
d="M341 761q1 -4 -7 -41q0 -15 -10 -44q-8 -8 -28 -8q-52 0 -53 33q0 7 3.5 16t4.5 13.5t1 27.5q0 16 8.5 24.5t27.5 8.5q47 0 53 -30zM203 781q2 -9 -1.5 -19.5t-6.5 -21.5q1 -15 -9 -43q-7 -8 -27 -8q-52 0 -55 33q-1 6 3.5 16.5t5.5 12.5q2 6 1 28q-1 17 7.5 24.5
t26.5 7.5q49 0 55 -30zM410 336q5 -107 -37 -220.5t-90 -128.5q-20 -7 -75 0q-165 19 -182 349q-4 90 29 192q31 96 65 118q8 5 17 5q8 0 23 -4.5t23 -4.5q10 0 35 4.5t37 4.5t19 -3q123 -50 136 -312zM302 336q-8 101 -21 151q-23 84 -66 84q-12 0 -25.5 -6t-34.5 -83
q-23 -83 -23 -146q0 -82 28.5 -173t55.5 -91t59.5 93.5t26.5 170.5z" />
    <glyph glyph-name="Udieresis" unicode="&#xdc;" horiz-adv-x="432" 
d="M335 761q1 -4 -7 -41q0 -15 -10 -44q-8 -8 -28 -8q-52 0 -53 33q0 7 3.5 16t4.5 13.5t1 27.5q0 16 8.5 24.5t27.5 8.5q47 0 53 -30zM197 781q2 -9 -1.5 -19.5t-6.5 -21.5q1 -15 -9 -43q-7 -8 -27 -8q-52 0 -55 33q-1 6 3.5 16.5t5.5 12.5q2 6 1 28q-1 17 7.5 24.5
t26.5 7.5q49 0 55 -30zM406 615q8 -15 8 -26l-9 -29q-1 -90 -3 -180q-8 -166 -43 -267q-47 -137 -141 -142q-110 -6 -158 170q-32 121 -32 305q0 67 3 100q-8 24 -8 41q0 26 16 43q10 11 36 11q31 0 58.5 -15.5t28.5 -42.5q1 -13 -8 -28.5t-8 -25.5q-7 -25 11 -228
q20 -217 50 -215q36 2 60 167q20 133 20 247q0 24 -2 34q2 10 -12 30t-14 34t11 29q17 25 62 25q54 0 74 -37z" />
    <glyph glyph-name="aacute" unicode="&#xe1;" horiz-adv-x="454" 
d="M373 760q0 -24 -21 -49q-33 -40 -35 -43l-18 -39q-12 -27 -23 -32t-25 -5q-22 0 -39 10.5t-17 26.5q0 6 2 11q25 64 100 144q9 9 25 9q18 0 34.5 -10t16.5 -23zM446 42q-15 -49 -74 -49q-20 0 -32 7q-16 11 -22 44q-12 57 -24 89q-3 -55 -60 -111.5t-115 -56.5
q-73 0 -101 97q-10 36 -10 68q0 93 95 159l157 91q4 17 4 33q0 31 -17 36.5t-29 5.5q-21 0 -34.5 -13.5l-25.5 -25.5q-12 -8 -31 -37q-15 -23 -33 -25q-26 -3 -47 18t-21 49q0 16 8 29q23 38 69 66q70 42 175 42q67 0 92 -64q16 -43 24 -161q9 -143 22 -209q2 -13 17 -33
t15 -35q0 -7 -2 -14zM272 288l-59.5 -33t-54.5 -45q-36 -41 -36 -70q0 -24 18 -50q10 -14 22 -14q26 0 56.5 58t53.5 154z" />
    <glyph glyph-name="agrave" unicode="&#xe0;" horiz-adv-x="454" 
d="M285 628q2 -5 2 -11q0 -16 -17 -26.5t-39 -10.5q-14 0 -25 5t-23 32l-18 39q-2 3 -35 43q-21 25 -21 49q0 13 16.5 23t34.5 10q16 0 25 -9q75 -80 100 -144zM446 42q-15 -49 -74 -49q-20 0 -32 7q-16 11 -22 44q-12 57 -24 89q-3 -55 -60 -111.5t-115 -56.5
q-73 0 -101 97q-10 36 -10 68q0 93 95 159l157 91q4 17 4 33q0 31 -17 36.5t-29 5.5q-21 0 -34.5 -13.5l-25.5 -25.5q-12 -8 -31 -37q-15 -23 -33 -25q-26 -3 -47 18t-21 49q0 16 8 29q23 38 69 66q70 42 175 42q67 0 92 -64q16 -43 24 -161q9 -143 22 -209q2 -13 17 -33
t15 -35q0 -7 -2 -14zM272 288l-59.5 -33t-54.5 -45q-36 -41 -36 -70q0 -24 18 -50q10 -14 22 -14q26 0 56.5 58t53.5 154z" />
    <glyph glyph-name="acircumflex" unicode="&#xe2;" horiz-adv-x="454" 
d="M320 614q-7 0 -13.5 2l-13.5 4q-3 2 -22 23l-49 55q-26 -22 -45 -60q-14 -27 -27 -28q-19 -1 -40 12t-21 31q0 20 55 71l29 44q19 28 37 28q24 0 41 -15l38 -39q78 -69 78 -92q0 -14 -15.5 -25t-31.5 -11zM446 42q-15 -49 -74 -49q-20 0 -32 7q-16 11 -22 44
q-12 57 -24 89q-3 -55 -60 -111.5t-115 -56.5q-73 0 -101 97q-10 36 -10 68q0 93 95 159l157 91q4 17 4 33q0 31 -17 36.5t-29 5.5q-21 0 -34.5 -13.5l-25.5 -25.5q-12 -8 -31 -37q-15 -23 -33 -25q-26 -3 -47 18t-21 49q0 16 8 29q23 38 69 66q70 42 175 42q67 0 92 -64
q16 -43 24 -161q9 -143 22 -209q2 -13 17 -33t15 -35q0 -7 -2 -14zM272 288l-59.5 -33t-54.5 -45q-36 -41 -36 -70q0 -24 18 -50q10 -14 22 -14q26 0 56.5 58t53.5 154z" />
    <glyph glyph-name="adieresis" unicode="&#xe4;" horiz-adv-x="454" 
d="M366 698q2 -10 -1.5 -22l-6.5 -23q0 -2 -3 -26q-1 -15 -8.5 -23.5t-30.5 -8.5q-22 0 -40 9.5t-19 26.5q0 8 4 18.5t5 15.5t1 30q0 18 9.5 27.5t30.5 9.5q20 0 38 -9.5t21 -24.5zM213 707q2 -10 -2 -22q-7 -22 -7.5 -24t-1.5 -25q-1 -14 -8.5 -22.5t-30.5 -8.5
q-22 0 -39 9q-20 10 -21 27q-1 8 3 17q6 13 7 16q1 5 0 31q0 19 9.5 27.5t29.5 8.5q21 0 39.5 -9.5t21.5 -24.5zM446 42q-15 -49 -74 -49q-20 0 -32 7q-16 11 -22 44q-12 57 -24 89q-3 -55 -60 -111.5t-115 -56.5q-73 0 -101 97q-10 36 -10 68q0 93 95 159l157 91q4 17 4 33
q0 31 -17 36.5t-29 5.5q-21 0 -34.5 -13.5l-25.5 -25.5q-12 -8 -31 -37q-15 -23 -33 -25q-26 -3 -47 18t-21 49q0 16 8 29q23 38 69 66q70 42 175 42q67 0 92 -64q16 -43 24 -161q9 -143 22 -209q2 -13 17 -33t15 -35q0 -7 -2 -14zM272 288l-59.5 -33t-54.5 -45
q-36 -41 -36 -70q0 -24 18 -50q10 -14 22 -14q26 0 56.5 58t53.5 154z" />
    <glyph glyph-name="atilde" unicode="&#xe3;" horiz-adv-x="454" 
d="M384 666q-44 -32 -70 -26l-102 22q-18 4 -43 -17.5t-36 -21.5q-21 0 -36 23q-14 20 -14 41q0 22 13 37q8 9 26 19q25 15 45 15q7 0 13 -2l108 -30q18 -5 42.5 20t35.5 22q26 -6 26 -64q0 -24 -8 -38zM446 42q-15 -49 -74 -49q-20 0 -32 7q-16 11 -22 44q-12 57 -24 89
q-3 -55 -60 -111.5t-115 -56.5q-73 0 -101 97q-10 36 -10 68q0 93 95 159l157 91q4 17 4 33q0 31 -17 36.5t-29 5.5q-21 0 -34.5 -13.5l-25.5 -25.5q-12 -8 -31 -37q-15 -23 -33 -25q-26 -3 -47 18t-21 49q0 16 8 29q23 38 69 66q70 42 175 42q67 0 92 -64q16 -43 24 -161
q9 -143 22 -209q2 -13 17 -33t15 -35q0 -7 -2 -14zM272 288l-59.5 -33t-54.5 -45q-36 -41 -36 -70q0 -24 18 -50q10 -14 22 -14q26 0 56.5 58t53.5 154z" />
    <glyph glyph-name="aring" unicode="&#xe5;" horiz-adv-x="454" 
d="M355 726q0 -50 -40 -90t-90 -40q-37 0 -63.5 26t-26.5 65q0 48 36 87q40 42 93 42q40 0 65.5 -26.5t25.5 -63.5zM446 42q-15 -49 -74 -49q-20 0 -32 7q-16 11 -22 44q-12 57 -24 89q-3 -55 -60 -111.5t-115 -56.5q-73 0 -101 97q-10 36 -10 68q0 93 95 159l157 91
q4 17 4 33q0 31 -17 36.5t-29 5.5q-21 0 -34.5 -13.5l-25.5 -25.5q-12 -8 -31 -37q-15 -23 -33 -25q-26 -3 -47 18t-21 49q0 16 8 29q23 38 69 66q70 42 175 42q67 0 92 -64q16 -43 24 -161q9 -143 22 -209q2 -13 17 -33t15 -35q0 -7 -2 -14zM272 756q-22 0 -52.5 -29.5
t-30.5 -53.5q0 -30 28 -30q33 0 62 38q20 27 20 45q0 30 -27 30zM272 288l-59.5 -33t-54.5 -45q-36 -41 -36 -70q0 -24 18 -50q10 -14 22 -14q26 0 56.5 58t53.5 154z" />
    <glyph glyph-name="ccedilla" unicode="&#xe7;" horiz-adv-x="376" 
d="M369 166q-1 -22 -19 -45q-28 -33 -36 -50q-47 -74 -98 -91q-4 -1 -64.5 -82.5t-66.5 -81.5q-17 0 -38 27q-28 35 -33 38q-4 3 48 60t49 59q-84 88 -84 256q0 123 47 212q51 96 133 96q66 0 107 -73q34 -62 34 -135q0 -20 -3 -35q-7 -34 -57 -34q-39 0 -60 22
q-10 11 -10 51q0 10 1 29v29q0 45 -16 45q-17 0 -36 -98.5t-19 -184.5q0 -100 30 -100q39 0 58 63q8 9 9 36q0 24 12 31.5t35 7.5q30 0 52 -13q26 -15 25 -39z" />
    <glyph glyph-name="eacute" unicode="&#xe9;" horiz-adv-x="378" 
d="M373 760q0 -24 -21 -49q-33 -40 -35 -43l-18 -39q-12 -27 -23 -32t-25 -5q-22 0 -39 10.5t-17 26.5q0 6 2 11q25 64 100 144q9 9 25 9q18 0 34.5 -10t16.5 -23zM390 105q-8 -38 -54 -81q-7 -11 -55 -29q-55 -21 -95 -18q-75 5 -118 86q-39 75 -39 184q0 118 44 207
q49 98 131 110q16 2 31 2q119 0 131 -146q6 -67 -53 -146q-64 -87 -164 -122q11 -40 17 -52q14 -25 38 -25q23 0 49 18q22 15 30 29q4 2 8 22.5t21 29.5q6 3 14 3q24 0 46.5 -23.5t17.5 -48.5zM233 457q-40 0 -65 -57q-33 -76 -27 -150q47 15 87 70t40 98q0 39 -35 39z" />
    <glyph glyph-name="egrave" unicode="&#xe8;" horiz-adv-x="378" 
d="M285 628q2 -5 2 -11q0 -16 -17 -26.5t-39 -10.5q-14 0 -25 5t-23 32l-18 39q-2 3 -35 43q-21 25 -21 49q0 13 16.5 23t34.5 10q16 0 25 -9q75 -80 100 -144zM390 105q-8 -38 -54 -81q-7 -11 -55 -29q-55 -21 -95 -18q-75 5 -118 86q-39 75 -39 184q0 118 44 207
q49 98 131 110q16 2 31 2q119 0 131 -146q6 -67 -53 -146q-64 -87 -164 -122q11 -40 17 -52q14 -25 38 -25q23 0 49 18q22 15 30 29q4 2 8 22.5t21 29.5q6 3 14 3q24 0 46.5 -23.5t17.5 -48.5zM233 457q-40 0 -65 -57q-33 -76 -27 -150q47 15 87 70t40 98q0 39 -35 39z" />
    <glyph glyph-name="ecircumflex" unicode="&#xea;" horiz-adv-x="378" 
d="M320 614q-7 0 -13.5 2l-13.5 4q-3 2 -22 23l-49 55q-26 -22 -45 -60q-14 -27 -27 -28q-19 -1 -40 12t-21 31q0 20 55 71l29 44q19 28 37 28q24 0 41 -15l38 -39q78 -69 78 -92q0 -14 -15.5 -25t-31.5 -11zM390 105q-8 -38 -54 -81q-7 -11 -55 -29q-55 -21 -95 -18
q-75 5 -118 86q-39 75 -39 184q0 118 44 207q49 98 131 110q16 2 31 2q119 0 131 -146q6 -67 -53 -146q-64 -87 -164 -122q11 -40 17 -52q14 -25 38 -25q23 0 49 18q22 15 30 29q4 2 8 22.5t21 29.5q6 3 14 3q24 0 46.5 -23.5t17.5 -48.5zM233 457q-40 0 -65 -57
q-33 -76 -27 -150q47 15 87 70t40 98q0 39 -35 39z" />
    <glyph glyph-name="edieresis" unicode="&#xeb;" horiz-adv-x="378" 
d="M342 698q2 -10 -1.5 -22l-6.5 -23q0 -2 -3 -26q-1 -15 -8.5 -23.5t-30.5 -8.5q-22 0 -40 9.5t-19 26.5q0 8 4 18.5t5 15.5t1 30q0 18 9.5 27.5t30.5 9.5q20 0 38 -9.5t21 -24.5zM189 707q2 -10 -2 -22q-7 -22 -7.5 -24t-1.5 -25q-1 -14 -8.5 -22.5t-30.5 -8.5
q-22 0 -39 9q-20 10 -21 27q-1 8 3 17q6 13 7 16q1 5 0 31q0 19 9.5 27.5t29.5 8.5q21 0 39.5 -9.5t21.5 -24.5zM390 105q-8 -38 -54 -81q-7 -11 -55 -29q-55 -21 -95 -18q-75 5 -118 86q-39 75 -39 184q0 118 44 207q49 98 131 110q16 2 31 2q119 0 131 -146
q6 -67 -53 -146q-64 -87 -164 -122q11 -40 17 -52q14 -25 38 -25q23 0 49 18q22 15 30 29q4 2 8 22.5t21 29.5q6 3 14 3q24 0 46.5 -23.5t17.5 -48.5zM233 457q-40 0 -65 -57q-33 -76 -27 -150q47 15 87 70t40 98q0 39 -35 39z" />
    <glyph glyph-name="iacute" unicode="&#xed;" horiz-adv-x="210" 
d="M211 760q0 -24 -21 -49q-33 -40 -35 -43l-18 -39q-12 -27 -23 -32t-25 -5q-22 0 -39 10.5t-17 26.5q0 6 2 11q25 64 100 144q9 9 25 9q18 0 34.5 -10t16.5 -23zM187 506q0 -14 -15.5 -43.5t-15.5 -48.5v-294q0 -20 11 -56.5t11 -50.5q0 -20 -16 -30q-25 -16 -54 -16
q-38 0 -54 26q-21 32 -21 191q0 38 1.5 118.5t1.5 117.5q0 14 -3 36.5t-3 32.5q0 33 24 57q10 10 37 10t54 -8.5t34.5 -19.5t7.5 -22z" />
    <glyph glyph-name="igrave" unicode="&#xec;" horiz-adv-x="204" 
d="M183 640q2 -5 2 -11q0 -16 -17 -26.5t-39 -10.5q-14 0 -25 5t-23 32l-18 39q-2 3 -35 43q-21 25 -21 49q0 13 16.5 23t34.5 10q16 0 25 -9q75 -80 100 -144zM187 506q0 -14 -15.5 -43.5t-15.5 -48.5v-294q0 -20 11 -56.5t11 -50.5q0 -20 -16 -30q-25 -16 -54 -16
q-38 0 -54 26q-21 32 -21 191q0 38 1.5 118.5t1.5 117.5q0 14 -3 36.5t-3 32.5q0 33 24 57q10 10 37 10t54 -8.5t34.5 -19.5t7.5 -22z" />
    <glyph glyph-name="icircumflex" unicode="&#xee;" horiz-adv-x="343" 
d="M271 621q-7 0 -13.5 2l-13.5 4q-3 2 -22 23l-49 55q-26 -22 -45 -60q-14 -27 -27 -28q-19 -1 -40 12t-21 31q0 20 55 71l29 44q19 28 37 28q24 0 41 -15l38 -39q78 -69 78 -92q0 -14 -15.5 -25t-31.5 -11zM264 520q0 -14 -15.5 -43.5t-15.5 -48.5v-294q0 -20 11 -56.5
t11 -50.5q0 -21 -16 -30q-25 -16 -54 -16q-38 0 -54 25q-21 33 -21 192q0 38 1.5 118.5t1.5 117.5q0 14 -3 36.5t-3 32.5q0 33 24 57q10 10 37 10t54 -8.5t34.5 -19.5t7.5 -22z" />
    <glyph glyph-name="idieresis" unicode="&#xef;" horiz-adv-x="312" 
d="M288 692q2 -10 -1.5 -22l-6.5 -23q0 -2 -3 -26q-1 -15 -8.5 -23.5t-30.5 -8.5q-22 0 -40 9.5t-19 26.5q0 8 4 18.5t5 15.5t1 30q0 18 9.5 27.5t30.5 9.5q20 0 38 -9.5t21 -24.5zM135 701q2 -10 -2 -22q-7 -22 -7.5 -24t-1.5 -25q-1 -14 -8.5 -22.5t-30.5 -8.5
q-22 0 -39 9q-20 10 -21 27q-1 8 3 17q6 13 7 16q1 5 0 31q0 19 9.5 27.5t29.5 8.5q21 0 39.5 -9.5t21.5 -24.5zM235 512q0 -14 -15.5 -43.5t-15.5 -48.5v-294q0 -20 11 -56.5t11 -50.5q0 -20 -16 -30q-25 -16 -54 -16q-38 0 -54 26q-21 32 -21 191q0 38 1.5 118.5
t1.5 117.5q0 14 -3 36.5t-3 32.5q0 33 24 57q10 10 37 10t54 -8.5t34.5 -19.5t7.5 -22z" />
    <glyph glyph-name="ntilde" unicode="&#xf1;" horiz-adv-x="492" 
d="M384 666q-44 -32 -70 -26l-102 22q-18 4 -43 -17.5t-36 -21.5q-21 0 -36 23q-14 20 -14 41q0 22 13 37q8 9 26 19q25 15 45 15q7 0 13 -2l108 -30q18 -5 42.5 20t35.5 22q26 -6 26 -64q0 -24 -8 -38zM480 64q-2 -22 -29 -37.5t-60 -15.5q-49 0 -67 31q8 308 -18 312
q-25 4 -122 -276v-60q-1 -36 -19.5 -51t-39.5 -15q-36 0 -77 39q-12 10 -13 152q1 -87 1 323q0 9 -2 24.5t-2 22.5q0 19 10 33q12 18 38 18q27 0 56.5 -16.5t35.5 -31.5q4 -10 4 -20t-8 -28t-8 -30v-138q63 134 95 177q57 74 129 69q43 -3 61 -80q14 -58 15 -172v-180
q2 -7 14 -25q7 -10 6 -25z" />
    <glyph glyph-name="oacute" unicode="&#xf3;" horiz-adv-x="414" 
d="M337 766q0 -24 -21 -49q-33 -40 -35 -43l-18 -39q-12 -27 -23 -32t-25 -5q-22 0 -39 10.5t-17 26.5q0 6 2 11q25 64 100 144q9 9 25 9q18 0 34.5 -10t16.5 -23zM330 516q67 -68 67 -229q0 -125 -47 -213q-53 -99 -146 -99q-92 0 -142 89q-44 78 -44 198q0 106 34 190
q36 90 92 106q29 8 60 8q77 0 126 -50zM216 468q-33 3 -57 -62q-21 -59 -21 -124q0 -94 8 -133q14 -70 58 -77q28 -4 52 77q23 78 23 167q0 146 -63 152z" />
    <glyph glyph-name="ograve" unicode="&#xf2;" horiz-adv-x="414" 
d="M285 628q2 -5 2 -11q0 -16 -17 -26.5t-39 -10.5q-14 0 -25 5t-23 32l-18 39q-2 3 -35 43q-21 25 -21 49q0 13 16.5 23t34.5 10q16 0 25 -9q75 -80 100 -144zM330 516q67 -68 67 -229q0 -125 -47 -213q-53 -99 -146 -99q-92 0 -142 89q-44 78 -44 198q0 106 34 190
q36 90 92 106q29 8 60 8q77 0 126 -50zM216 468q-33 3 -57 -62q-21 -59 -21 -124q0 -94 8 -133q14 -70 58 -77q28 -4 52 77q23 78 23 167q0 146 -63 152z" />
    <glyph glyph-name="ocircumflex" unicode="&#xf4;" horiz-adv-x="414" 
d="M320 614q-7 0 -13.5 2l-13.5 4q-3 2 -22 23l-49 55q-26 -22 -45 -60q-14 -27 -27 -28q-19 -1 -40 12t-21 31q0 20 55 71l29 44q19 28 37 28q24 0 41 -15l38 -39q78 -69 78 -92q0 -14 -15.5 -25t-31.5 -11zM330 516q67 -68 67 -229q0 -125 -47 -213q-53 -99 -146 -99
q-92 0 -142 89q-44 78 -44 198q0 106 34 190q36 90 92 106q29 8 60 8q77 0 126 -50zM216 468q-33 3 -57 -62q-21 -59 -21 -124q0 -94 8 -133q14 -70 58 -77q28 -4 52 77q23 78 23 167q0 146 -63 152z" />
    <glyph glyph-name="odieresis" unicode="&#xf6;" horiz-adv-x="414" 
d="M366 698q2 -10 -1.5 -22l-6.5 -23q0 -2 -3 -26q-1 -15 -8.5 -23.5t-30.5 -8.5q-22 0 -40 9.5t-19 26.5q0 8 4 18.5t5 15.5t1 30q0 18 9.5 27.5t30.5 9.5q20 0 38 -9.5t21 -24.5zM213 707q2 -10 -2 -22q-7 -22 -7.5 -24t-1.5 -25q-1 -14 -8.5 -22.5t-30.5 -8.5
q-22 0 -39 9q-20 10 -21 27q-1 8 3 17q6 13 7 16q1 5 0 31q0 19 9.5 27.5t29.5 8.5q21 0 39.5 -9.5t21.5 -24.5zM330 516q67 -68 67 -229q0 -125 -47 -213q-53 -99 -146 -99q-92 0 -142 89q-44 78 -44 198q0 106 34 190q36 90 92 106q29 8 60 8q77 0 126 -50zM216 468
q-33 3 -57 -62q-21 -59 -21 -124q0 -94 8 -133q14 -70 58 -77q28 -4 52 77q23 78 23 167q0 146 -63 152z" />
    <glyph glyph-name="otilde" unicode="&#xf5;" horiz-adv-x="414" 
d="M360 648q-44 -32 -70 -26l-102 22q-18 4 -43 -17.5t-36 -21.5q-21 0 -36 23q-14 20 -14 41q0 22 13 37q8 9 26 19q25 15 45 15q7 0 13 -2l108 -30q18 -5 42.5 20t35.5 22q26 -6 26 -64q0 -24 -8 -38zM330 516q67 -68 67 -229q0 -125 -47 -213q-53 -99 -146 -99
q-92 0 -142 89q-44 78 -44 198q0 106 34 190q36 90 92 106q29 8 60 8q77 0 126 -50zM216 468q-33 3 -57 -62q-21 -59 -21 -124q0 -94 8 -133q14 -70 58 -77q28 -4 52 77q23 78 23 167q0 146 -63 152z" />
    <glyph glyph-name="uacute" unicode="&#xfa;" horiz-adv-x="414" 
d="M373 760q0 -24 -21 -49q-33 -40 -35 -43l-18 -39q-12 -27 -23 -32t-25 -5q-22 0 -39 10.5t-17 26.5q0 6 2 11q25 64 100 144q9 9 25 9q18 0 34.5 -10t16.5 -23zM402 488q2 -15 -6 -32q-10 -23 -12 -34q0 -208 -17 -289q-37 -170 -157 -170q-175 0 -175 319q0 86 13 182
q-7 23 -7 41q0 29 19 49q16 17 47 17q25 0 47 -10.5t26 -24.5q2 -7 2 -14q0 -13 -11 -41.5t-9 -46.5q-10 -56 -10 -141q0 -86 11 -143q14 -66 39 -66q42 0 55 142q7 71 7 226q0 10 -3 29t-3 28q0 24 18 33q10 5 28 5q33 0 61 -14q33 -17 37 -45z" />
    <glyph glyph-name="ugrave" unicode="&#xf9;" horiz-adv-x="414" 
d="M285 628q2 -5 2 -11q0 -16 -17 -26.5t-39 -10.5q-14 0 -25 5t-23 32l-18 39q-2 3 -35 43q-21 25 -21 49q0 13 16.5 23t34.5 10q16 0 25 -9q75 -80 100 -144zM402 488q2 -15 -6 -32q-10 -23 -12 -34q0 -208 -17 -289q-37 -170 -157 -170q-175 0 -175 319q0 86 13 182
q-7 23 -7 41q0 29 19 49q16 17 47 17q25 0 47 -10.5t26 -24.5q2 -7 2 -14q0 -13 -11 -41.5t-9 -46.5q-10 -56 -10 -141q0 -86 11 -143q14 -66 39 -66q42 0 55 142q7 71 7 226q0 10 -3 29t-3 28q0 24 18 33q10 5 28 5q33 0 61 -14q33 -17 37 -45z" />
    <glyph glyph-name="ucircumflex" unicode="&#xfb;" horiz-adv-x="414" 
d="M320 614q-7 0 -13.5 2l-13.5 4q-3 2 -22 23l-49 55q-26 -22 -45 -60q-14 -27 -27 -28q-19 -1 -40 12t-21 31q0 20 55 71l29 44q19 28 37 28q24 0 41 -15l38 -39q78 -69 78 -92q0 -14 -15.5 -25t-31.5 -11zM402 488q2 -15 -6 -32q-10 -23 -12 -34q0 -208 -17 -289
q-37 -170 -157 -170q-175 0 -175 319q0 86 13 182q-7 23 -7 41q0 29 19 49q16 17 47 17q25 0 47 -10.5t26 -24.5q2 -7 2 -14q0 -13 -11 -41.5t-9 -46.5q-10 -56 -10 -141q0 -86 11 -143q14 -66 39 -66q42 0 55 142q7 71 7 226q0 10 -3 29t-3 28q0 24 18 33q10 5 28 5
q33 0 61 -14q33 -17 37 -45z" />
    <glyph glyph-name="udieresis" unicode="&#xfc;" horiz-adv-x="414" 
d="M366 698q2 -10 -1.5 -22l-6.5 -23q0 -2 -3 -26q-1 -15 -8.5 -23.5t-30.5 -8.5q-22 0 -40 9.5t-19 26.5q0 8 4 18.5t5 15.5t1 30q0 18 9.5 27.5t30.5 9.5q20 0 38 -9.5t21 -24.5zM213 707q2 -10 -2 -22q-7 -22 -7.5 -24t-1.5 -25q-1 -14 -8.5 -22.5t-30.5 -8.5
q-22 0 -39 9q-20 10 -21 27q-1 8 3 17q6 13 7 16q1 5 0 31q0 19 9.5 27.5t29.5 8.5q21 0 39.5 -9.5t21.5 -24.5zM402 488q2 -15 -6 -32q-10 -23 -12 -34q0 -208 -17 -289q-37 -170 -157 -170q-175 0 -175 319q0 86 13 182q-7 23 -7 41q0 29 19 49q16 17 47 17q25 0 47 -10.5
t26 -24.5q2 -7 2 -14q0 -13 -11 -41.5t-9 -46.5q-10 -56 -10 -141q0 -86 11 -143q14 -66 39 -66q42 0 55 142q7 71 7 226q0 10 -3 29t-3 28q0 24 18 33q10 5 28 5q33 0 61 -14q33 -17 37 -45z" />
    <glyph glyph-name="dagger" unicode="&#x2020;" horiz-adv-x="430" 
d="M408 370q-8 -7 -20 -7q-5 0 -22.5 3t-27.5 2l-95 -15v-219q0 -20 11 -56.5t11 -50.5q0 -21 -16 -30q-25 -16 -54 -16q-38 0 -54 25q-19 30 -21 161q0 26 2 168q-8 -2 -29 -11q-16 -7 -26 -7q-24 0 -42.5 23.5t-18.5 47.5q0 20 12 34l105 12q1 117 1 121q4 45 22 70
q8 11 32 11q22 0 46.5 -8.5t33 -20.5t8.5 -29q0 -10 -7 -46q-7 -41 -10 -77q26 6 51 11q47 9 71 9q13 0 19 -3q31 -18 31 -66q0 -25 -13 -36z" />
    <glyph glyph-name="degree" unicode="&#xb0;" horiz-adv-x="230" 
d="M195 794q18 -27 18 -78q0 -73 -32 -130q-37 -64 -92 -55q-75 12 -75 118q0 63 27.5 119.5t63.5 61.5q59 7 90 -36zM134 779q-16 4 -32.5 -25.5t-21.5 -62.5q-7 -43 -7 -62q0 -42 23 -49q17 -5 39 49.5t22 100.5q0 43 -23 49z" />
    <glyph glyph-name="cent" unicode="&#xa2;" horiz-adv-x="282" 
d="M217 714q0 -28 -56 -47q-12 -4 -40.5 10t-29.5 31q-2 19 18 35q17 14 37 14q21 0 46 -15.5t25 -27.5zM269 332q-1 -17 -29 -36q-28 -52 -106 -52q-57 0 -88 59q-27 52 -27 132q0 84 29 147q32 68 82 68q58 0 80 -27q15 -18 22 -67q16 -36 16 -60q0 -41 -53 -41
q-51 0 -51 30q0 6 2 23q2 14 1 19q-2 9 -9 9q-11 0 -18 -33.5t-7 -76.5q0 -100 29 -100q11 0 32 29q3 10 18 25q16 6 30 6q23 0 35.5 -16t11.5 -38zM201 174q0 -28 -56 -47q-12 -4 -40.5 10t-29.5 31q-2 19 18 35q17 14 37 14q21 0 46 -15.5t25 -27.5z" />
    <glyph glyph-name="sterling" unicode="&#xa3;" horiz-adv-x="440" 
d="M428 294q9 -186 -98 -242q-20 -10 -55 -16.5t-53 -17.5q-32 -18 -34 -19q-26 -12 -59 -14q-31 -3 -61 17t-40 54q-2 7 -2 13q0 13 14.5 29t13.5 28l-42 606q-5 66 109 84q90 14 116 14q100 0 142 -111q4 -11 4 -21q0 -21 -16 -34.5t-37 -13.5q-39 0 -50 40q-13 47 -63 47
q-25 0 -55 -11q-25 -10 -32 -18q-3 -20 17 -251l68 20q40 10 73 8q22 -2 35.5 -21.5t13.5 -43.5q0 -53 -49 -45q-9 1 -19 1q-24 0 -58 -11l-57 -20l15 -218q103 23 124 42q30 27 25 119q-1 27 15.5 42.5t39.5 15.5q52 0 55 -52z" />
    <glyph glyph-name="section" unicode="&#xa7;" horiz-adv-x="370" 
d="M354 134q0 -70 -50 -119.5t-118 -49.5q-64 0 -121 67q-49 58 -49 94q5 14 30 25.5t48 11.5q14 0 23 -5q24 -13 27 -33q3 -23 10 -29q21 -32 38 -32q13 0 24.5 17.5t11.5 41.5q0 15 -5 29t-34 33.5l-59 38t-54 62.5q-28 53 -32 120q8 58 42 101q-45 49 -45 113
q0 75 44 131.5t112 56.5q70 0 107 -53q30 -42 25 -87q11 -12 11 -39q0 -31 -22 -51.5t-45 -20.5q-34 0 -59 44q-7 12 -7 33q0 8 1.5 25t1.5 23q0 26 -19 26q-27 0 -27 -45q0 -28 10.5 -59.5t23.5 -39.5q151 -100 150 -181q-1 -83 -49 -128q55 -39 55 -121zM203 313
q19 12 19 37t-17.5 53t-35.5 40q-6 -15 -6 -36q0 -59 38 -93z" />
    <glyph glyph-name="bullet" unicode="&#x2022;" horiz-adv-x="234" 
d="M201 456q2 -8 2 -16q0 -14 -8 -36q-9 -27 -11 -38l-4 -51q-2 -29 -17 -46t-60 -17q-44 0 -78 17q-38 20 -40 54q-1 15 7 34q9 23 11.5 34.5t2.5 27.5q0 7 -1 21t-1 20q0 29 18.5 45.5t59.5 16.5t75 -17q38 -19 44 -49z" />
    <glyph glyph-name="paragraph" unicode="&#xb6;" horiz-adv-x="470" 
d="M452 47q-4 -24 -32 -40t-55 -16q-23 0 -32 11q-16 22 -16 34q0 7 7.5 17t7.5 19q7 74 7 132q0 34 -3 56q-17 -9 -50 -2v-154q0 -14 8 -37.5t8 -34.5q0 -10 -5 -20q-19 -36 -57 -36q-35 0 -55 32q-6 11 -6 23q0 10 6.5 32t6.5 35l-1 228q-69 81 -121 175q-58 108 -58 174
q0 30 13 48q59 83 160 83q28 0 60 -7q17 1 47 -10.5t45 -12.5q63 11 94 -2q25 -10 25 -26q0 -5 -2.5 -13.5t-2.5 -11.5l-1 -627l4 -16q3 -12 -2 -33zM343 619q-26 30 -57 47v-266q26 -22 42 -22q8 0 12 5zM190 513l-1 185q-55 3 -55 -46q0 -51 56 -139z" />
    <glyph glyph-name="germandbls" unicode="&#xdf;" horiz-adv-x="495" 
d="M475 292q0 -93 -71 -159q-57 -53 -140 -75q-6 -2 -12 -2q-21 0 -37 17q-27 28 -27 56q0 24 18 40.5t42 16.5q17 0 30 -10q31 16 56.5 51t25.5 65q0 42 -34 58l-115 34q-49 15 -49 56q0 54 61 87q85 46 85 107q0 18 -7 36q-13 33 -63 33q-39 0 -67 -22q-32 -25 -34 -68
q-4 -96 15 -266q21 -187 21 -265q0 -45 -22.5 -77.5t-53.5 -32.5q-21 0 -42 15q-24 18 -24 45q0 35 31 52q2 42 -18 230q-21 197 -21 284q0 97 21 128q26 40 82 64t119 24q80 0 132 -39q58 -43 58 -125q0 -55 -39.5 -108.5t-91.5 -76.5q70 -7 118 -51q53 -49 53 -122z" />
    <glyph glyph-name="registered" unicode="&#xae;" horiz-adv-x="612" 
d="M585 419q0 -171 -77 -291q-61 -93 -132 -116q-23 -7 -44 -6l-44 6q-123 15 -194 119q-73 108 -73 288q0 106 65 230q57 111 100 130q10 4 21 4q9 0 26 -3.5t26 -3.5q11 0 40.5 4.5t43.5 4.5q13 0 21 -3q90 -27 155.5 -133t65.5 -230zM484 420q0 111 -54 206
q-58 104 -138 104q-15 0 -30 -4q-46 -13 -92 -110q-48 -100 -48 -196q0 -103 37 -191q29 -71 76 -119q41 -41 69 -41q53 0 107 72q73 100 73 279zM421 270q4 -15 -12.5 -26t-35.5 -11q-11 0 -17 4q-3 8 -15 22l-72 57l3 -41q0 -3 7 -13t7 -17q0 -10 -13 -19q-7 -5 -19 -5
q-16 0 -31.5 9t-18.5 23q-2 10 5 16t7 9l-15 256q0 6 -4.5 15.5t-4.5 14.5q0 3 1 6q10 19 39 19q9 0 15.5 -2.5t8.5 -7.5t6 -5q1 -1 27 9q31 12 55 12q35 0 56 -24q6 -7 6 -19q0 -33 -38 -93q-35 -56 -74 -90l89 -72q3 -3 22 -11q13 -6 16 -16zM327 541q-17 0 -64 -50
l-1 -79q28 29 50 66.5t22 53.5q0 5 -2 7t-5 2z" />
    <glyph glyph-name="copyright" unicode="&#xa9;" horiz-adv-x="612" 
d="M585 419q0 -171 -77 -291q-61 -93 -132 -116q-23 -7 -44 -6l-44 6q-123 15 -194 119q-73 108 -73 288q0 106 65 230q57 111 100 130q10 4 21 4q9 0 26 -3.5t26 -3.5q11 0 40.5 4.5t43.5 4.5q13 0 21 -3q90 -27 155.5 -133t65.5 -230zM484 420q0 111 -54 206
q-58 104 -138 104q-15 0 -30 -4q-46 -13 -92 -110q-48 -100 -48 -196q0 -103 37 -191q29 -71 76 -119q41 -41 69 -41q53 0 107 72q73 100 73 279zM424 338q-1 -15 -13 -32q-20 -24 -25 -34q-43 -68 -91 -68q-55 0 -86 57q-27 51 -27 129q0 88 33 154q37 72 95 72
q47 0 75 -51q24 -44 24 -96q0 -13 -2 -24q-5 -24 -40 -24q-28 0 -42 16q-7 8 -7 34q0 7 1 22v21q0 31 -11 31q-12 0 -25 -68t-13 -128q0 -71 21 -71q27 0 40 44q6 6 6 25q0 16 8.5 21.5t24.5 5.5q21 0 38 -9.5t16 -26.5z" />
    <glyph glyph-name="trademark" unicode="&#x2122;" horiz-adv-x="864" 
d="M837 321q-14 -20 -40 -20q-25 0 -49.5 15t-27.5 28q-1 5 -1 9q0 9 8.5 21t7.5 21l-18 202l-103 -233q-3 -7 0 -34q3 -22 -11 -31t-36 -9q-51 0 -59 40q-2 10 0 20t0 16l-86 231l14 -213q1 -8 4.5 -23.5t3.5 -22.5q0 -23 -33 -35q-4 -2 -10 -2q-21 0 -45 18t-24 38
q0 7 7 14t7 13l-13 338q0 8 -6 21t-6 19q0 11 11 22.5t37 11.5q40 0 63 -19q14 -11 13 -21q0 -17 2 -22l119 -288l133 306q2 5 1 26q0 14 13 24q10 8 27 8q27 0 51 -15.5t23 -35.5q0 -10 -8.5 -16.5t-8.5 -11.5l25 -354q0 -6 9.5 -21t9.5 -23q0 -6 -4 -12zM303 734
q-7 -13 -28 -13q-28 0 -33 -2l-52 -21q-2 -45 -2 -99q0 -112 7 -229q0 -8 6 -21.5t6 -19.5q0 -8 -5 -15q-13 -18 -40 -18q-23 0 -43.5 12.5t-23.5 29.5q-2 9 9.5 20t11.5 22q-8 207 -3 295q-35 -10 -34 -10q-9 0 -17 6q-22 17 -27 25q-9 13 -6 29q2 9 88 35q92 28 98.5 31
t15 12t18.5 10q13 2 36 -18t23 -43q0 -9 -5 -18z" />
    <glyph glyph-name="acute" unicode="&#xb4;" horiz-adv-x="210" 
d="M201 760q0 -24 -21 -49q-33 -40 -35 -43l-18 -39q-12 -27 -23 -32t-25 -5q-22 0 -39 10.5t-17 26.5q0 6 2 11q25 64 100 144q9 9 25 9q18 0 34.5 -10t16.5 -23z" />
    <glyph glyph-name="dieresis" unicode="&#xa8;" horiz-adv-x="280" 
d="M255 804q1 -5 -7 -41q0 -16 -10 -44q-7 -9 -27 -9q-52 0 -54 34q0 6 4 15.5t5 14t0 27.5q0 16 9 24t28 8q46 0 52 -29zM117 824q2 -10 -1 -20.5t-7 -20.5q1 -16 -9 -43q-7 -9 -27 -9q-52 0 -55 34q0 6 3 14q6 13 6 15q2 6 1 28q0 16 8 24t27 8q48 0 54 -30z" />
    <glyph glyph-name="notequal" unicode="&#x2260;" horiz-adv-x="370" 
d="M324 455q-9 -3 -38 -1.5t-41 -1.5l-13 -53q32 9 45 9t23 -6q31 -18 31 -66q0 -25 -13 -36q-8 -7 -19 -7q-5 0 -25 4q-16 4 -26 1l-43 -10q0 -3 -3 -45q-1 -25 -16 -38q-21 -18 -51 -18q-38 0 -53 30q-2 5 11 37q-17 -4 -33 4q-42 21 -42 66q0 20 12 34q4 4 31 4
q33 0 47 4l15 4l13 55q-1 -1 -22 -9q-14 -5 -23 -5q-24 0 -42.5 23.5t-18.5 47.5q0 20 12 34q4 4 31 4q33 0 47 4l41 11l8 48q7 31 20.5 41t36.5 10q25 0 45 -11.5t20 -30.5q0 -12 -10 -27q18 2 31 -5q31 -18 31 -66q0 -33 -19 -39z" />
    <glyph glyph-name="AE" unicode="&#xc6;" horiz-adv-x="740" 
d="M720 709q-16 -13 -65 -19q-77 -9 -92 -12q-56 -12 -90 -42q-7 -103 0 -238q12 9 58 21t57 8q37 -12 62 -36q29 -27 24 -58q-6 -32 -54 -37q-32 -2 -64 -5l-56 -26q0 -90 10 -115q40 11 66 23l10 14q10 10 36 8q28 -2 58 -31.5t30 -60.5q0 -27 -23 -40.5t-77 -9.5
q-11 -5 -78 -49q-42 -26 -67 -26q-28 0 -64 26t-43 53q-2 9 5 30l12 33l-2 43l-3 7q-82 -12 -202 -34q-12 -29 -26 -84q2 -10 2 -19q0 -27 -18 -41.5t-43 -14.5q-28 0 -52 21t-24 49q0 25 23 45q75 381 182 630q-2 12 -2 24q0 50 34 66q18 8 36 8q21 0 60.5 -15t61.5 -15
q7 0 14 1q13 2 33 -7q13 -6 25 -13l120 38q4 2 22 12q14 8 31 8q8 0 19 -2q22 -4 43.5 -34.5t21.5 -56.5q0 -18 -11 -27zM328 280q-17 63 -54 242q-71 -155 -84 -266z" />
    <glyph glyph-name="Oslash" unicode="&#xd8;" horiz-adv-x="540" 
d="M513 420q7 -134 -46 -276.5t-113 -160.5q-24 -8 -47 -6l-47 6q-206 24 -227 437q-6 112 36 240q39 119 81 147q10 7 22 7q9 0 28 -5.5t29 -5.5q12 0 43.5 5.5t46.5 5.5q14 0 23 -4q155 -63 171 -390zM364 542q-27 172 -96 172q-15 0 -31.5 -8t-43.5 -103
q-28 -104 -28 -183q0 -30 4 -66zM378 414q-59 -62 -187 -177q39 -147 79 -147q33 0 73 112q41 116 35 212z" />
    <glyph glyph-name="infinity" unicode="&#x221e;" horiz-adv-x="662" 
d="M648 390q0 -33 -42 -78q-45 -48 -86 -48q-36 0 -93 32q-7 4 -93 61q-49 -91 -148 -86q-47 3 -99 45q-56 44 -68 98q-4 19 -4 37q0 53 38 82q34 26 88 26q42 0 85 -23q20 -11 81 -53q45 44 74 61q40 24 88 24t113.5 -66.5t65.5 -111.5zM544 379q0 22 -45 57q-21 17 -51 17
q-29 0 -36 -17q97 -71 118 -71q14 0 14 14zM247 408q-99 54 -114 54q-12 0 -12 -13t13 -29t28 -23q27 -13 45 -13q25 0 40 24z" />
    <glyph glyph-name="plusminus" unicode="&#xb1;" horiz-adv-x="440" 
d="M399 403q-16 1 -51 -1l-72 -12q3 -29 17 -97q29 8 41 8q14 0 24 -6q30 -18 30 -66q0 -25 -12 -36q-8 -7 -19 -7q-5 0 -25 4q-16 4 -26 1l-108 -26q-9 -2 -31 -12q-18 -7 -29 -7q-24 0 -43 23.5t-19 47.5q0 20 12 34q33 3 82 9q-8 15 -12 46q-7 62 -8 66l-42 -18
q-18 -8 -36 -6q-22 2 -37 25t-15 50q0 17 9 34.5t25 17.5q4 0 16 -4t20 -3l50 8l-10 82q-1 6 -5 17t-4 17q0 18 36 29q26 7 51 7q62 0 62 -32q0 -7 -4.5 -24t-4.5 -24l3 -56l44 8q9 2 29 8q17 6 27 6q24 0 43.5 -23t19.5 -48q0 -32 -28 -40z" />
    <glyph glyph-name="lessequal" unicode="&#x2264;" horiz-adv-x="370" 
d="M331 643q2 -17 -18 -33q-34 -26 -36 -29l-160 -185l175 -165q34 -32 34 -57q0 -10 -4 -21q-17 -43 -63 -43q-19 0 -37.5 7.5t-20.5 20.5t-3 27q-1 10 -8 16l-128 117q-53 43 -53 87q0 42 57 105.5l115 126.5q5 7 20 38q11 21 28 28q11 5 25 5q26 0 50 -14t27 -31zM339 0
q-8 -6 -19 -6q-4 0 -24 4q-16 3 -27 1l-108 -26q-9 -2 -31 -12q-17 -7 -28 -7q-24 0 -43.5 23t-19.5 47q0 20 12 34q4 4 31 4q33 0 47 4l114 30q45 12 55 12q13 0 23 -6q31 -18 31 -66q0 -25 -13 -36z" />
    <glyph glyph-name="greaterequal" unicode="&#x2265;" horiz-adv-x="370" 
d="M311 318l-136 -128q-7 -7 -7.5 -30.5t-24.5 -33.5q-18 -8 -37 -8q-45 0 -63 44q-4 11 -4 20q0 26 34 58l175 164l-159 186q-2 3 -36 29q-21 15 -18 33q2 17 26 31t51 14q14 0 25 -5q17 -7 28 -28q16 -33 20 -38q16 -21 117 -127q59 -62 59 -100q0 -39 -50 -81zM328 28
q-7 -7 -18 -7q-5 0 -25 4q-16 4 -27 1l-108 -26q-9 -1 -31 -11q-17 -7 -28 -7q-24 0 -43.5 22.5t-19.5 47.5q0 20 12 34q4 4 31 4q33 0 47 4l114 30q46 12 55 12q13 0 23 -6q31 -18 31 -66q0 -25 -13 -36z" />
    <glyph glyph-name="yen" unicode="&#xa5;" horiz-adv-x="630" 
d="M608 748q1 -25 -22 -45q-34 -30 -55 -73q36 10 54 -1q30 -18 30 -66q0 -25 -12 -36l-118 -13l-43 -108l25 7q44 12 55 12q13 0 23 -6q31 -18 31 -66q0 -25 -13 -36q-8 -7 -19 -7q-4 0 -24 4q-16 3 -27 1l-97 -26l-38 -94q-10 -28 -10 -48q0 -1 8 -85q5 -46 5 -38
q0 -34 -39 -47q-16 -6 -36 -6q-44 0 -75 22q-35 24 -29 61q5 34 21 48q13 12 13 52q0 30 -5 87q-3 0 -40 -14q-27 -9 -43 -9q-24 0 -42.5 22.5t-18.5 47.5q0 20 12 34q45 5 103 14l-32 93q-26 -11 -37 -11q-24 0 -43.5 23t-19.5 48q0 20 13 34q1 2 54 5l-55 162
q-4 13 -25 43q-16 25 -16 40q0 10 5 19q13 25 81 25q44 0 55 -7q33 -21 36 -50.5l6 -57.5l46 -143l117 29l53 138q19 49 25 61.5t29 22.5q17 8 38 8q36 0 65 -20t31 -50zM323 474l-42 -10l17 -54z" />
    <glyph glyph-name="mu" unicode="&#xb5;" horiz-adv-x="440" 
d="M425 48q1 -19 -26 -43t-53 -24q-14 0 -22 7t-12 15q-8 17 -25.5 3.5t-66.5 -13.5q-29 0 -51 18l-33 32q3 -35 3 -54q0 -68 -29 -93q-10 -8 -28 -8q-41 0 -58 33q-9 18 -9 83q0 166 43 490q-7 23 -7 41q0 29 19 49q16 17 47 17q25 0 47 -10.5t26 -24.5q2 -7 2 -14
q0 -13 -11 -41.5t-9 -46.5q-11 -60 -11 -161q0 -189 51 -189q42 0 55 142q7 71 7 226q0 10 -3 29t-3 28q0 24 18 33q10 5 28 5q33 0 61 -14q33 -17 37 -45q2 -15 -6 -32q-10 -23 -12 -34q0 -232 -25 -320q55 -75 56 -84z" />
    <glyph glyph-name="mu" unicode="&#x3bc;" horiz-adv-x="440" 
d="M425 48q1 -19 -26 -43t-53 -24q-14 0 -22 7t-12 15q-8 17 -25.5 3.5t-66.5 -13.5q-29 0 -51 18l-33 32q3 -35 3 -54q0 -68 -29 -93q-10 -8 -28 -8q-41 0 -58 33q-9 18 -9 83q0 166 43 490q-7 23 -7 41q0 29 19 49q16 17 47 17q25 0 47 -10.5t26 -24.5q2 -7 2 -14
q0 -13 -11 -41.5t-9 -46.5q-11 -60 -11 -161q0 -189 51 -189q42 0 55 142q7 71 7 226q0 10 -3 29t-3 28q0 24 18 33q10 5 28 5q33 0 61 -14q33 -17 37 -45q2 -15 -6 -32q-10 -23 -12 -34q0 -232 -25 -320q55 -75 56 -84z" />
    <glyph glyph-name="partialdiff" unicode="&#x2202;" horiz-adv-x="370" 
d="M333 213q0 -82 -39 -139q-50 -71 -148 -71q-65 0 -100 57q-27 43 -27 97q0 74 48 127q35 39 111 79q-20 87 -94 109q-39 12 -39 51q0 23 14.5 40t38.5 17q9 0 18 -2q110 -33 164 -165q26 5 45 -13.5t19 -43.5q0 -26 -23 -42q12 -49 12 -101zM223 213q0 25 -4 47
q-50 -29 -62 -40q-28 -25 -28 -63q0 -52 34 -52q23 0 40 27q20 31 20 81z" />
    <glyph glyph-name="summation" unicode="&#x2211;" horiz-adv-x="480" 
d="M423 21q-126 0 -296 -22q-10 -1 -19 -1q-40 0 -62.5 21t-22.5 55q0 40 30 81l96 140q54 79 106 136l-128 136q-87 94 -111 146q-31 72 42 86q123 23 310 23q50 0 50 -62q0 -25 -12.5 -44t-32.5 -19q-5 0 -11 1q-40 10 -89 10q-34 0 -117 -8l210 -228q14 -17 14 -36
q0 -22 -17 -39l-205 -284q70 10 155 16q65 4 107 13q6 1 11 1q21 0 33 -17t12 -41q0 -26 -14 -45t-39 -19z" />
    <glyph glyph-name="product" unicode="&#x220f;" horiz-adv-x="560" 
d="M549 738q-10 -20 -45 -20q-5 0 -14 1h-15q-18 0 -28 -5l-29 -16q0 2 0 -556q0 -15 8.5 -41.5t8.5 -38.5q0 -28 -26.5 -47.5t-55.5 -19.5q-35 0 -52 28q-6 11 -6 23q0 10 7 33t7 38l-1 551l-46 -16l-1 -549q0 -14 10.5 -36.5t10.5 -32.5q0 -13 -9 -25q-21 -29 -58 -29
q-32 0 -60 21t-33 49q-3 15 15.5 34t18.5 36q-7 199 -7 348q0 90 3 144q-1 0 -28 -10q-18 -7 -29 -7q-16 0 -29 11q-18 14 -35 29q-12 11 -12 27q0 8 3 20.5t186 69.5q195 62 207 69q10 4 25 19q12 14 29 15q21 2 53 -22q36 -29 36 -63q0 -16 -9 -32z" />
    <glyph glyph-name="pi" unicode="&#x3c0;" horiz-adv-x="560" 
d="M549 502q-10 -20 -45 -20h-14q-10 1 -15 1q-18 0 -28 -5l-29 -16q0 2 0 -320q0 -15 8.5 -41.5t8.5 -38.5q0 -28 -26.5 -47.5t-55.5 -19.5q-35 0 -52 28q-6 10 -6 23q0 10 7 33t7 38l-1 314l-46 -15l-1 -313q0 -14 10.5 -36.5t10.5 -32.5q0 -13 -9 -25q-21 -29 -58 -29
q-32 0 -60 21t-33 49q-3 15 15.5 34t18.5 36q-4 111 -4 256q-1 -1 -28 -11q-18 -6 -29 -6q-16 0 -29 11q-18 14 -35 29q-12 11 -12 27q0 7 3 20t186 70q195 62 207 69q10 4 25 19q12 13 29 15q21 2 53 -23q36 -28 36 -62q0 -16 -9 -32z" />
    <glyph glyph-name="integral" unicode="&#x222b;" horiz-adv-x="330" 
d="M306 786q-5 -22 -34 -34q-42 -16 -52 -24q-54 -44 -54 -185q0 -22 1 -63t1 -60l-1 -325q0 -26 19 -49t19 -35q0 -7 -3 -14q-14 -35 -59 -35q-28 0 -53 14.5t-30 35.5q-6 26 -6 66v312q0 235 27 319q29 90 123 125q8 3 17 3q28 0 58 -19t27 -32z" />
    <glyph glyph-name="ordfeminine" unicode="&#xaa;" horiz-adv-x="450" 
d="M375 433q-11 -38 -55 -38q-15 0 -24 7q-12 7 -17 32q-9 43 -18 67q-2 -41 -45 -83.5t-86 -42.5q-55 0 -76 73q-7 27 -7 51q0 70 71 120l118 68q3 13 3 24q0 24 -13 28t-22 4q-15 0 -25.5 -10t-19.5 -17.5t-23 -29.5q-11 -17 -25 -19q-19 -2 -35 13.5t-16 36.5q0 12 6 22
q50 81 183 81q50 0 69 -48q13 -32 18 -120q7 -108 17 -157q2 -10 13 -25t11 -26q0 -5 -2 -11zM245 618l-45 -25.5t-41 -33.5q-27 -31 -27 -52q0 -18 14 -38q7 -10 16 -10q19 0 42 43.5t41 115.5z" />
    <glyph glyph-name="ordmasculine" unicode="&#xba;" horiz-adv-x="450" 
d="M310 775q50 -51 50 -172q0 -94 -35 -160q-39 -75 -109 -75q-69 0 -107 67q-33 59 -33 149q0 80 26 143q26 67 69 79q22 7 45 7q57 0 94 -38zM225 739q-25 2 -43 -47q-16 -44 -16 -93q0 -70 6 -100q11 -52 44 -57q21 -3 39 58q17 58 17 125q0 110 -47 114z" />
    <glyph glyph-name="Omegagreek" unicode="&#x3a9;" horiz-adv-x="680" 
d="M660 74q19 -16 19 -51q0 -39 -22 -51q-7 -4 -15 -4t-26 7.5t-28 8.5q-19 2 -47 -1q-34 -4 -45 -4q-22 0 -43 7q-19 2 -37 22.5t-19 39.5q-1 17 19 36t18 32q6 10 6 112q0 164 -20 282q-26 160 -80 160q-64 0 -98 -165q-25 -127 -25 -289q0 -82 6 -106q-1 -9 24 -46
t25 -57q0 -14 -12 -25q-18 -15 -66 -15q-28 0 -63 5q-10 -1 -37.5 -9t-40.5 -8q-24 0 -41.5 22.5t-17.5 46.5q0 41 35 41q5 0 17 -1t17 -1q26 0 30 14q1 113 3 225q11 208 54 333q60 173 177 179q137 7 196 -214q41 -151 41 -380q0 -84 -4 -125q4 -12 26 -12q6 0 18.5 1
t18.5 1q26 0 37 -11z" />
    <glyph glyph-name="Omegagreek" unicode="&#x2126;" horiz-adv-x="680" 
d="M660 74q19 -16 19 -51q0 -39 -22 -51q-7 -4 -15 -4t-26 7.5t-28 8.5q-19 2 -47 -1q-34 -4 -45 -4q-22 0 -43 7q-19 2 -37 22.5t-19 39.5q-1 17 19 36t18 32q6 10 6 112q0 164 -20 282q-26 160 -80 160q-64 0 -98 -165q-25 -127 -25 -289q0 -82 6 -106q-1 -9 24 -46
t25 -57q0 -14 -12 -25q-18 -15 -66 -15q-28 0 -63 5q-10 -1 -37.5 -9t-40.5 -8q-24 0 -41.5 22.5t-17.5 46.5q0 41 35 41q5 0 17 -1t17 -1q26 0 30 14q1 113 3 225q11 208 54 333q60 173 177 179q137 7 196 -214q41 -151 41 -380q0 -84 -4 -125q4 -12 26 -12q6 0 18.5 1
t18.5 1q26 0 37 -11z" />
    <glyph glyph-name="ae" unicode="&#xe6;" horiz-adv-x="660" 
d="M646 119q-8 -39 -54 -81q-7 -12 -55 -30q-55 -20 -95 -17q-96 6 -137 130q-8 15 -11 22q-3 -55 -60 -111.5t-115 -56.5q-73 0 -101 97q-10 36 -10 68q0 93 95 159l157 91q4 17 4 33q0 31 -17 36.5t-29 5.5q-21 0 -34.5 -13.5l-25.5 -25.5q-12 -8 -31 -37q-15 -23 -33 -25
q-26 -3 -47 18t-21 49q0 16 8 29q23 38 69 66q70 42 175 42q59 0 83 -50q42 51 99 60q16 2 31 2q119 0 131 -146q6 -68 -53 -147q-64 -87 -164 -121q11 -41 17 -53q14 -24 38 -24q23 0 49 18q22 15 30 29q4 2 8 22t21 30q6 3 14 3q24 0 46.5 -23.5t17.5 -48.5zM489 471
q-40 0 -65 -57q-33 -76 -27 -150q47 15 87 70t40 97q0 40 -35 40zM272 298l-59.5 -33t-54.5 -45q-36 -41 -36 -70q0 -24 18 -50q10 -14 22 -14q26 0 56.5 58t53.5 154z" />
    <glyph glyph-name="oslash" unicode="&#xf8;" horiz-adv-x="420" 
d="M330 516q67 -68 67 -229q0 -125 -47 -213q-53 -99 -146 -99q-92 0 -142 89q-44 78 -44 198q0 106 34 190q36 90 92 106q29 8 60 8q77 0 126 -50zM268 404q-18 61 -52 64q-40 4 -62 -89q-16 -65 -16 -122q45 48 130 147zM278 273q-67 -67 -84 -91l-43 -53q15 -51 53 -57
q25 -4 47 60q21 61 27 141z" />
    <glyph glyph-name="questiondown" unicode="&#xbf;" horiz-adv-x="410" 
d="M217 627q-60 0 -80 34q-8 14 -8 32v34q-1 11 -6.5 29t-5.5 27q0 11 6 20q13 22 38 22q23 0 47.5 -17t36.5 -39q7 -14 8 -32v-36q0 -9 5 -24t5 -22q0 -10 -6.5 -19t-39.5 -9zM395 181q-2 -40 -48 -58q-55 -66 -93 -97q-56 -45 -108 -45q-44 0 -87 32q-56 44 -56 103
q0 56 61 160q81 139 97 181q7 19 7 28q0 4 -2 10.5t-1 13.5q-1 -10 -2 37q0 19 11 26.5t25 7.5q31 0 62 -26.5t34 -56.5q5 -46 -77 -198q-83 -156 -83 -196q0 -26 14 -26q31 0 110 110q6 6 15 26q8 16 20 22.5t28 6.5q28 0 51 -18t22 -43z" />
    <glyph glyph-name="exclamdown" unicode="&#xa1;" horiz-adv-x="200" 
d="M164 619q-8 -19 -46 -19q-67 0 -86 43q-5 11 -5 24q0 9 3 29t4 31q-1 -1 -3 30q-2 17 7 30q11 18 41 18q52 0 79 -36q7 -10 7 -31q0 -8 -2 -34.5t-1 -42.5q0 -2 3 -21q2 -12 -1 -21zM170 437q8 -125 8 -258q0 -173 -14 -189q-11 -12 -50 -12q-72 0 -82 35q-2 7 -2 14
q0 10 7 29.5t7 32.5v332q0 15 -7.5 41.5t-7.5 36.5q0 19 15.5 31t39.5 12q52 0 80 -37q8 -11 8 -27q0 -5 -1.5 -18.5t-0.5 -22.5z" />
    <glyph glyph-name="logicalnot" unicode="&#xac;" horiz-adv-x="478" 
d="M447 210q-5 -11 -26 -19.5t-43 -8.5q-40 0 -49 26q-4 9 -2 21q1 16 0 23q-5 15 -13 45l-166 -25q-12 -2 -31 -10.5t-30 -8.5q-24 0 -42.5 23.5t-18.5 47.5q0 20 12 34q4 4 30 5q36 1 48 3l216 36q7 1 30 7q17 4 27 4q12 0 21 -5q27 -16 29 -62q1 -37 1 -74
q1 -7 5.5 -22.5t4.5 -23.5t-3 -16z" />
    <glyph glyph-name="radical" unicode="&#x221a;" horiz-adv-x="480" 
d="M462 412q0 -15 -17 -28q-22 -18 -27 -26l-159 -253l-35 -64q-28 -41 -57 -41q-13 0 -26.5 7.5t-15.5 28.5q-4 29 -8 37l-50 102q-3 6 -27 34q-14 18 -11 38q3 25 23 44t43 19q10 0 20 -4q5 -2 14 -27q12 -34 17 -45l36 -67l145 235l22 43q16 22 39 22q25 0 49.5 -18
t24.5 -37z" />
    <glyph glyph-name="florin" unicode="&#x192;" horiz-adv-x="390" 
d="M390 474q-9 -26 -36.5 -29t-53.5 -5l-72 -20l-1 -454q0 -26 19 -49.5t19 -34.5q0 -7 -3 -15q-14 -35 -59 -35q-29 0 -53.5 14.5t-30 38t-5.5 64.5v441q-20 -9 -42 -6q-69 9 -69 56q0 14 9 30q6 10 36 15q46 8 60 13q2 150 26 215q33 91 130 121q7 2 16 2q28 0 58.5 -18
t27.5 -32q-4 -21 -36 -31q-38 -13 -50 -27q-36 -44 -47 -92q-9 -37 -7 -106q7 2 49 15q27 8 49 7q25 -1 46.5 -21t21.5 -43q0 -7 -2 -14z" />
    <glyph glyph-name="approxequal" unicode="&#x2248;" horiz-adv-x="370" 
d="M314 383q-44 -32 -70 -26l-102 22q-18 4 -42.5 -17.5t-36.5 -21.5q-19 0 -34 18t-15 37t12 34q8 9 27 19q25 15 45 15q7 0 12 -2l108 -30q17 -5 41 19t32 24q15 0 24 -23q7 -18 7 -35q0 -20 -8 -33zM348 243q-44 -32 -70 -26l-102 22q-19 4 -43.5 -17.5t-36.5 -21.5
q-19 0 -34 18t-15 37t13 34q7 9 26 19q25 14 45 14q7 0 13 -1l108 -30q16 -5 40 19t32 24q15 0 24 -23q8 -18 8 -35q0 -20 -8 -33z" />
    <glyph glyph-name="approxequal" unicode="&#x22f2;" horiz-adv-x="370" 
d="M314 383q-44 -32 -70 -26l-102 22q-18 4 -42.5 -17.5t-36.5 -21.5q-19 0 -34 18t-15 37t12 34q8 9 27 19q25 15 45 15q7 0 12 -2l108 -30q17 -5 41 19t32 24q15 0 24 -23q7 -18 7 -35q0 -20 -8 -33zM348 243q-44 -32 -70 -26l-102 22q-19 4 -43.5 -17.5t-36.5 -21.5
q-19 0 -34 18t-15 37t13 34q7 9 26 19q25 14 45 14q7 0 13 -1l108 -30q16 -5 40 19t32 24q15 0 24 -23q8 -18 8 -35q0 -20 -8 -33z" />
    <glyph glyph-name="Deltagreek" unicode="&#x394;" horiz-adv-x="510" 
d="M496 102q-10 -29 -51 -29q-19 0 -39 6l-281 -38q-12 -2 -31.5 -10.5t-29.5 -8.5q-24 0 -42.5 23.5t-18.5 47.5q0 20 12 34q10 9 20 19.5t14 23.5l111 400q3 12 3 30v10.5v10.5q0 26 12 38q16 17 63 19q49 3 75 -35q19 -29 32 -95l113 -318q3 -8 27 -53q15 -30 15 -51
q0 -12 -4 -24zM346 172l-94 290q-27 -114 -86 -317z" />
    <glyph glyph-name="Deltagreek" unicode="&#x2206;" horiz-adv-x="510" 
d="M496 102q-10 -29 -51 -29q-19 0 -39 6l-281 -38q-12 -2 -31.5 -10.5t-29.5 -8.5q-24 0 -42.5 23.5t-18.5 47.5q0 20 12 34q10 9 20 19.5t14 23.5l111 400q3 12 3 30v10.5v10.5q0 26 12 38q16 17 63 19q49 3 75 -35q19 -29 32 -95l113 -318q3 -8 27 -53q15 -30 15 -51
q0 -12 -4 -24zM346 172l-94 290q-27 -114 -86 -317z" />
    <glyph glyph-name="guillemotleft" unicode="&#xab;" horiz-adv-x="440" 
d="M419 453q2 -14 -14 -25q-25 -20 -27 -22l-119 -139l131 -123q25 -24 25 -44q0 -7 -3 -15q-13 -33 -47 -33q-14 0 -28 6t-15.5 15.5t-2.5 20.5q-1 7 -6 12l-96 87q-39 33 -39 66q0 32 42.5 79.5l85.5 94.5q4 5 16 28q8 17 20 22q9 3 19 3q20 0 38 -10.5t20 -22.5zM254 453
q2 -14 -13 -25q-26 -20 -27 -22l-120 -139l131 -123q26 -24 26 -44q0 -7 -3 -15q-13 -33 -47 -33q-14 0 -28 6t-15.5 15.5t-2.5 20.5q-1 7 -6 12l-96 87q-40 33 -40 66q0 32 42.5 79.5l86.5 94.5q4 5 15 28q8 17 21 22q8 3 19 3q19 0 37.5 -10.5t19.5 -22.5z" />
    <glyph glyph-name="guillemotright" unicode="&#xbb;" horiz-adv-x="440" 
d="M385 362q39 -33 39 -66q0 -32 -42.5 -79.5l-85.5 -94.5q-4 -5 -16 -28q-8 -17 -18.5 -21t-20.5 -4q-20 0 -38 10.5t-20 22.5q-2 14 13 25q26 20 28 22l119 139l-131 123q-25 24 -25 44q0 7 3 15q12 33 47 33q14 0 28 -6t15.5 -15.5t2.5 -20.5q0 -7 6 -12zM220 362
q40 -33 40 -66q0 -32 -42.5 -79.5l-86.5 -94.5q-4 -5 -15 -28q-8 -17 -21 -22q-8 -3 -19 -3q-19 0 -37.5 10.5t-19.5 22.5q-2 14 13 25q26 20 27 22l120 139l-131 123q-26 24 -26 44q0 7 3 15q13 33 47 33q15 0 28.5 -6t15.5 -15.5t2 -20.5q1 -7 6 -12z" />
    <glyph glyph-name="ellipsis" unicode="&#x2026;" horiz-adv-x="600" 
d="M569 113q2 -12 -2 -28l-9 -28q-1 -16 -2.5 -33.5t-11 -27.5t-37.5 -10t-49 11q-25 12 -26 33q0 9 5.5 22t7 20t0.5 38q0 23 11.5 34t36.5 11q26 0 49 -11.5t27 -30.5zM369 113q2 -12 -2 -28l-9 -28q-1 -16 -2.5 -33.5t-11 -27.5t-37.5 -10t-49 11q-25 12 -26 33
q0 9 5.5 22t7 20t0.5 38q0 23 11.5 34t36.5 11q26 0 49 -11.5t27 -30.5zM169 113q2 -12 -2 -28l-9 -28q-1 -16 -2.5 -33.5t-11 -27.5t-37.5 -10t-49 11q-25 12 -26 33q0 9 5.5 22t7 20t0.5 38q0 23 11.5 34t36.5 11q26 0 49 -11.5t27 -30.5z" />
    <glyph glyph-name="nonbreakingspace" unicode="&#xa0;" horiz-adv-x="250" 
 />
    <glyph glyph-name="Agrave" unicode="&#xc0;" horiz-adv-x="495" 
d="M313 714q-5 -36 -48 -36q-10 0 -17 3q-11 4 -17 19q-11 26 -12.5 29t-25.5 30q-12 14 -10 29q2 14 16.5 23t32.5 9q13 0 23 -6q31 -18 47 -49q14 -27 11 -51zM470 163q-6 -10 -24 -11.5t-35 -2.5q6 -39 42 -90q21 -15 21 -40q0 -39 -49 -39q-46 0 -62 23q-6 8 -7 22
q0 9 -1 18q-7 7 -43 93q-65 -9 -162 -27q-9 -23 -20 -67q2 -8 2 -15q0 -45 -50 -45q-23 0 -41.5 16.5t-18.5 38.5q0 21 18 37q60 306 146 504q-2 10 -2 20q0 40 27 52q11 5 28 5q33 0 56 -11q30 -15 30 -43q0 -26 -15 -47q15 -139 66 -314q63 13 59 13q10 0 16 -5
q28 -21 28 -53q0 -17 -9 -32zM278 224q-13 51 -43 194q-56 -123 -67 -213z" />
    <glyph glyph-name="Atilde" unicode="&#xc3;" horiz-adv-x="495" 
d="M384 702q-44 -32 -70 -26l-102 22q-18 4 -43 -17.5t-36 -21.5q-19 0 -34.5 18t-15.5 38q0 18 13 33q8 9 26 19q25 15 45 15q7 0 13 -2l108 -30q17 -5 40.5 19t31.5 24q15 0 25 -22q7 -19 7 -36q0 -19 -8 -33zM470 163q-6 -10 -24 -11.5t-35 -2.5q6 -39 42 -90
q21 -15 21 -40q0 -39 -49 -39q-46 0 -62 23q-6 8 -7 22q0 9 -1 18q-7 7 -43 93q-65 -9 -162 -27q-9 -23 -20 -67q2 -8 2 -15q0 -45 -50 -45q-23 0 -41.5 16.5t-18.5 38.5q0 21 18 37q60 306 146 504q-2 10 -2 20q0 40 27 52q11 5 28 5q33 0 56 -11q30 -15 30 -43
q0 -26 -15 -47q15 -139 66 -314q63 13 59 13q10 0 16 -5q28 -21 28 -53q0 -17 -9 -32zM278 224q-13 51 -43 194q-56 -123 -67 -213z" />
    <glyph glyph-name="Otilde" unicode="&#xd5;" horiz-adv-x="432" 
d="M354 696q-44 -32 -70 -26l-102 22q-18 4 -43 -17.5t-36 -21.5q-19 0 -34.5 18t-15.5 38q0 18 13 33q8 9 26 19q25 15 45 15q7 0 13 -2l108 -30q17 -5 40.5 19t31.5 24q15 0 25 -22q7 -19 7 -36q0 -19 -8 -33zM410 336q5 -107 -37 -220.5t-90 -128.5q-20 -7 -75 0
q-165 19 -182 349q-4 90 29 192q31 96 65 118q8 5 17 5q8 0 23 -4.5t23 -4.5q10 0 35 4.5t37 4.5t19 -3q123 -50 136 -312zM302 336q-8 101 -21 151q-23 84 -66 84q-12 0 -25.5 -6t-34.5 -83q-23 -83 -23 -146q0 -82 28.5 -173t55.5 -91t59.5 93.5t26.5 170.5z" />
    <glyph glyph-name="OE" unicode="&#x152;" horiz-adv-x="770" 
d="M749 702q-23 -19 -59 -19q-15 0 -35 3q-35 -9 -63 -17q-66 -20 -84 -35q-6 -104 0 -238q12 8 55 18t54 6q33 -11 59 -31q30 -25 30 -49q0 -7 -3 -14q-18 -43 -68 -43q-8 0 -21.5 1t-18.5 1q-6 0 -10 -1q-34 -10 -77 -24q0 -90 6 -116q35 6 91 22q5 7 10 13q10 11 36 9
q27 -2 57.5 -32t30.5 -60q0 -27 -23 -40.5t-77 -9.5l-94 -47q-6 -3 -26 -20q-15 -13 -27 -13q-43 0 -87 58q-27 -33 -51 -41t-47 -6l-47 6q-206 24 -227 437q-6 112 36 240q39 119 81 147q10 7 22 7q9 0 28 -5.5t29 -5.5q12 0 43.5 5.5t46.5 5.5q39 0 84 -44q17 11 42 14
q13 2 33 -7l25 -13l120 38q4 1 22 12q14 8 31 8q8 0 19 -2q22 -4 43.5 -34.5t21.5 -56.5q0 -18 -11 -27zM378 420q-10 125 -27 188q-28 106 -83 106q-15 0 -31.5 -8t-43.5 -103q-28 -104 -28 -183q0 -103 36 -216.5t69 -113.5q31 0 69 102q40 106 40 201q0 14 -1 27z" />
    <glyph glyph-name="oe" unicode="&#x153;" horiz-adv-x="670" 
d="M652 105q-8 -39 -54 -81q-7 -12 -54 -29q-55 -21 -96 -18q-69 4 -111 74q-52 -76 -133 -76q-92 0 -142 89q-44 78 -44 198q0 106 34 190q36 90 92 106q29 8 60 8q102 0 149 -82q46 70 113 80q16 2 31 2q119 0 131 -146q6 -68 -52 -147q-65 -87 -165 -121q11 -41 18 -53
q13 -24 37 -24q35 0 58 26q3 4 30 49q16 27 34 27q24 0 47 -23.5t17 -48.5zM496 457q-41 0 -66 -57q-33 -76 -27 -150q47 14 88 71q40 54 40 96q0 40 -35 40zM216 468q-33 3 -57 -62q-21 -59 -21 -124q0 -94 8 -133q14 -70 58 -77q28 -4 52 77q23 78 23 167q0 146 -63 152z
" />
    <glyph glyph-name="endash" unicode="&#x2013;" horiz-adv-x="500" 
d="M438 306q-8 -7 -20 -7q-5 0 -22.5 3.5t-27.5 1.5l-210 -32q-12 -2 -31 -10.5t-30 -8.5q-24 0 -42.5 23.5t-18.5 47.5q0 20 12 34q4 4 30 5q36 1 48 3l216 36q7 1 30 7q17 4 27 4q12 0 21 -5q31 -18 31 -66q0 -25 -13 -36z" />
    <glyph glyph-name="emdash" unicode="&#x2014;" horiz-adv-x="1000" 
d="M960 354q-9 -7 -21 -7q-6 0 -22.5 3t-26.5 2l-732 -80q-12 -1 -31.5 -10t-29.5 -9q-24 0 -43 25q-18 22 -18 46q0 20 12 34q4 5 30 6q42 1 48 2l738 84q9 1 31 6q18 5 27 5q11 0 20 -5q31 -18 31 -66q0 -25 -13 -36z" />
    <glyph glyph-name="quotedblleft" unicode="&#x201c;" horiz-adv-x="378" 
d="M336 708q-34 -23 -45 -36.5t-15.5 -49.5t-19.5 -52q-9 -9 -21 -9q-25 0 -49 27q-12 13 -12 33q0 42 45 100q40 53 67 63q20 8 38 8q47 0 47 -38q0 -8 -3.5 -16.5t-31.5 -29.5zM176 710q-34 -23 -45 -36.5t-15.5 -49.5t-19.5 -52q-9 -9 -21 -9q-25 0 -49 27q-12 13 -12 33
q0 42 45 100q40 53 67 63q20 8 38 8q47 0 47 -38q0 -8 -3.5 -16.5t-31.5 -29.5z" />
    <glyph glyph-name="quotedblright" unicode="&#x201d;" horiz-adv-x="396" 
d="M368 752q12 -13 12 -33q0 -42 -45 -100q-40 -53 -67 -63q-20 -8 -38 -8q-47 0 -47 38q0 8 3.5 16.5t31.5 29.5q34 23 46 38q10 12 14.5 48t19.5 52q9 9 21 9q25 0 49 -27zM208 754q12 -13 12 -33q0 -42 -45 -100q-40 -53 -67 -63q-20 -8 -38 -8q-47 0 -47 38
q0 8 3.5 16.5t31.5 29.5q34 23 46 38q10 12 14.5 48t19.5 52q9 9 21 9q25 0 49 -27z" />
    <glyph glyph-name="quoteleft" unicode="&#x2018;" horiz-adv-x="228" 
d="M176 710q-34 -23 -45 -36.5t-15.5 -49.5t-19.5 -52q-9 -9 -21 -9q-25 0 -49 27q-12 13 -12 33q0 42 45 100q40 53 67 63q20 8 38 8q47 0 47 -38q0 -8 -3.5 -16.5t-31.5 -29.5z" />
    <glyph glyph-name="quoteright" unicode="&#x2019;" horiz-adv-x="252" 
d="M208 754q12 -13 12 -33q0 -42 -45 -100q-40 -53 -67 -63q-20 -8 -38 -8q-47 0 -47 38q0 8 3.5 16.5t31.5 29.5q34 23 46 38q10 12 14.5 48t19.5 52q9 9 21 9q25 0 49 -27z" />
    <glyph glyph-name="divide" unicode="&#xf7;" horiz-adv-x="370" 
d="M259 525q1 -5 1 -8q0 -5 -4.5 -11.5t-6.5 -15.5q-1 -16 -2.5 -33.5t-11 -28t-37.5 -10.5t-49 11q-25 13 -26 34q0 7 10.5 49.5t12.5 43.5q12 12 37 12q26 0 49 -12t27 -31zM328 300q-8 -7 -19 -7q-5 0 -23 4t-28 1l-108 -26q-9 -2 -31 -12q-17 -7 -28 -7q-25 0 -44 23.5
t-19 47.5q0 20 12 34q4 4 31 4q33 0 47 4l114 30q45 12 55 12q13 0 23 -6q31 -18 31 -66q0 -25 -13 -36zM250 208q1 -5 1 -8q0 -5 -4.5 -11.5t-6.5 -15.5l-2 -33.5t-11 -28t-38 -10.5q-27 0 -50 12t-25 33q0 7 11 49.5t12 43.5q12 12 37 12q26 0 49 -12t27 -31z" />
    <glyph glyph-name="lozenge" unicode="&#x25ca;" horiz-adv-x="417" 
d="M361 469q38 -34 38 -67q0 -32 -42 -79l-85 -94l-20 -34.5t-34 -17.5q-20 0 -37 8q-20 10 -22 25l1 14q1 7 -5 13l-97 87q-37 34 -37 67q0 32 42 79l85 94l19 34.5t34 17.5q20 0 38.5 -9t20.5 -24l-1 -14q-1 -7 6 -13zM319 396l-122 114l-97 -113l122 -114z" />
    <glyph glyph-name="ydieresis" unicode="&#xff;" horiz-adv-x="468" 
d="M366 704q2 -10 -1.5 -22l-6.5 -23q0 -2 -3 -26q-1 -15 -8.5 -23.5t-30.5 -8.5q-22 0 -40 9.5t-19 26.5q0 8 4 18.5t5 15.5t1 30q0 18 9.5 27.5t30.5 9.5q20 0 38 -9.5t21 -24.5zM213 713q2 -10 -2 -22q-7 -22 -7.5 -24t-1.5 -25q-1 -14 -8.5 -22.5t-30.5 -8.5
q-22 0 -39 9q-20 10 -21 27q-1 8 3 17q6 13 7 16q1 5 0 31q0 19 9.5 27.5t29.5 8.5q21 0 39.5 -9.5t21.5 -24.5zM468 498q3 -20 -10 -43q-23 -38 -24 -41l-130 -322q-40 -106 -50 -191q-2 -8 -1 -35q1 -22 -7 -33q-16 -21 -48 -21q-57 0 -74 43q-4 11 -4 19q0 10 8 22.5
t10 20.5l24 125l-144 414q-3 8 -16 33q-9 18 -9 31q0 7 2 14q10 36 68 36q36 0 57 -12q25 -15 29 -53q5 -62 7 -69l66 -208l102 258q1 3 9 44q5 25 21 34q10 6 23 6q29 0 58 -21.5t33 -50.5z" />
    <glyph glyph-name="Ydieresis" unicode="&#x178;" horiz-adv-x="466" 
d="M389 755q1 -4 -7 -41q0 -15 -10 -44q-8 -8 -28 -8q-52 0 -53 33q0 7 3.5 16t4.5 13.5t1 27.5q0 16 8.5 24.5t27.5 8.5q47 0 53 -30zM251 775q2 -9 -1.5 -19.5t-6.5 -21.5q1 -15 -9 -43q-7 -8 -27 -8q-52 0 -55 33q-1 6 3.5 16.5t5.5 12.5q2 6 1 28q-1 17 7.5 24.5
t26.5 7.5q49 0 55 -30zM486 598q1 -23 -22 -44q-29 -26 -35 -40l-152 -383l8 -81q4 -37 4 -31q0 -27 -31 -37q-13 -4 -29 -4q-35 0 -61 17.5t-22 47.5q2 14 18 36q13 19 12 35l-8 88l-118 350q-3 10 -20 35q-13 19 -13 32q0 7 4 15q10 20 64 20q36 0 45 -6
q26 -17 28.5 -40.5t4.5 -45.5l75 -234l98 253l16.5 39.5t26.5 27.5q14 6 30 6q29 0 52.5 -16t24.5 -40z" />
    <glyph glyph-name="fraction" unicode="&#x2044;" horiz-adv-x="410" 
d="M392 778q1 -13 -15 -33q-20 -24 -24 -37l-202 -628q-3 -12 -11 -70q-5 -37 -20 -43q-6 -2 -17 -2q-30 0 -59 14q-33 16 -37 43q-2 15 8 33q15 26 17 32l218 666q2 7 4 42q1 24 14.5 34.5t35.5 10.5q30 0 57 -17.5t31 -44.5z" />
    <glyph glyph-name="Euro" unicode="&#x20ac;" horiz-adv-x="650" 
d="M625 292q-9 -8 -21 -8q-6 0 -22.5 3.5t-26.5 2.5l-285 -32q11 -158 54 -166q18 -3 40 28.5t23 58.5q-2 10 -2 19q0 60 73 60q15 0 31 -4q49 -10 49 -48q0 -32 -28 -57q-21 -61 -60 -110q-53 -65 -110 -66q-176 -2 -205 269h-7q-12 -2 -31.5 -10.5t-29.5 -8.5q-9 0 -19 5
q-40 20 -40 53q0 17 13 32q4 5 31 6q40 1 47 2l31 4v29h-2q-12 -1 -31.5 -10t-29.5 -9q-9 0 -19 5q-40 20 -40 54q0 17 13 32q4 4 31 5q40 2 47 3l35 4q14 144 57 244q50 115 124 128q19 3 37 3q130 0 167 -203q17 -49 17 -60q0 -33 -41 -51q-9 -3 -21 -3q-28 0 -64 19
q-41 21 -41 47q0 4 14 39q-3 66 -43 76q-42 10 -64 -222l256 31q9 1 30 6q18 5 28 5q21 0 34.5 -18.5t13.5 -40.5t-13 -34q-9 -7 -21 -7q-6 0 -22.5 3t-26.5 2l-286 -32q0 -13 -1 -28l264 31l30 7q18 5 28 5q21 0 34.5 -18.5t13.5 -40.5t-13 -34z" />
    <glyph glyph-name="guilsinglleft" unicode="&#x2039;" horiz-adv-x="280" 
d="M254 453q2 -14 -13 -25q-26 -20 -27 -22l-120 -139l131 -123q26 -24 26 -44q0 -7 -3 -15q-13 -33 -47 -33q-14 0 -28 6t-15.5 15.5t-2.5 20.5q-1 7 -6 12l-96 87q-40 33 -40 66q0 32 42.5 79.5l86.5 94.5q4 5 15 28q8 17 21 22q8 3 19 3q19 0 37.5 -10.5t19.5 -22.5z" />
    <glyph glyph-name="guilsinglright" unicode="&#x203a;" horiz-adv-x="280" 
d="M215 362q39 -33 39 -66q0 -32 -42.5 -79.5l-85.5 -94.5q-4 -5 -16 -28q-8 -17 -18.5 -21t-20.5 -4q-20 0 -38 10.5t-20 22.5q-2 14 13 25q26 20 28 22l119 139l-131 123q-25 24 -25 44q0 7 3 15q12 33 47 33q14 0 28 -6t15.5 -15.5t2.5 -20.5q0 -7 6 -12z" />
    <glyph glyph-name="daggerdbl" unicode="&#x2021;" horiz-adv-x="450" 
d="M428 370q-8 -7 -20 -7q-5 0 -22.5 3t-27.5 2l-95 -15v-219q0 -20 11 -56.5t11 -50.5q0 -21 -16 -30q-25 -16 -54 -16q-38 0 -54 25q-19 30 -21 161q0 26 2 168q-8 -2 -29 -11q-16 -7 -26 -7q-24 0 -42.5 23.5t-18.5 47.5q0 20 12 34l105 12q0 38 1 70q-11 -2 -36.5 -11
t-37.5 -9q-24 0 -42 23t-18 47q0 20 12 34l126 16q8 139 28 167q8 11 32 11q23 0 47 -8.5t32 -20.5q13 -18 2 -126q19 5 39 9q28 6 45 6q25 0 39 -23q13 -19 13 -47q0 -25 -13 -36q-61 -5 -136 -12q-5 -45 -7 -69q26 6 51 11q47 9 71 9q13 0 19 -3q31 -18 31 -66
q0 -25 -13 -36z" />
    <glyph glyph-name="periodcentered" unicode="&#xb7;" horiz-adv-x="190" 
d="M166 460q2 -12 -3 -28q-8 -24 -8 -28q-1 -16 -2.5 -33t-11 -28t-37.5 -11t-49 11q-25 13 -26 34q-1 10 5 21q6 15 7.5 21.5t0.5 37.5q-1 24 11 35t37 11q26 0 49 -12t27 -31z" />
    <glyph glyph-name="periodcentered" unicode="&#x2219;" horiz-adv-x="190" 
d="M166 460q2 -12 -3 -28q-8 -24 -8 -28q-1 -16 -2.5 -33t-11 -28t-37.5 -11t-49 11q-25 13 -26 34q-1 10 5 21q6 15 7.5 21.5t0.5 37.5q-1 24 11 35t37 11q26 0 49 -12t27 -31z" />
    <glyph glyph-name="quotesinglbase" unicode="&#x201a;" horiz-adv-x="160" 
d="M141 1q-15 -26 -55 -26q-46 0 -59 32q-3 7 0 48l6 90q0 9 -2.5 23t-2.5 19q0 34 38 34q22 0 43 -13.5t26 -32.5q2 -10 -2 -25t-4 -23v-78z" />
    <glyph glyph-name="quotedblbase" unicode="&#x201e;" horiz-adv-x="310" 
d="M284 -1q-15 -27 -55 -27q-46 0 -59 32q-3 7 0 48l6 90q0 9 -2.5 23t-2.5 19q0 34 38 34q22 0 43 -13.5t26 -32.5q2 -10 -2 -25t-4 -23v-78zM140 22q-15 -26 -55 -26q-46 0 -59 32q-3 7 0 48l6 90q0 9 -2.5 23t-2.5 19q0 34 38 34q22 0 43 -13.5t26 -32.5q2 -10 -2 -25
t-4 -23v-78z" />
    <glyph glyph-name="perthousand" unicode="&#x2030;" horiz-adv-x="890" 
d="M880 170q5 -80 -41 -130q-38 -40 -87 -43q-60 -4 -109 34q-53 41 -53 99q0 57 45 99.5t105 42.5q47 0 94 -37q43 -34 46 -65zM664 720q-5 -14 -23 -28q-21 -17 -27 -26l-336 -492q-3 -5 -31 -69q-19 -44 -43 -51q-11 -3 -22 -3q-27 0 -46 19t-20 54q-2 25 15 40l27 22
l318 480l-214 -66q4 -20 4 -41q0 -72 -44 -125q-46 -56 -112 -56q-99 0 -99 83q0 55 39.5 120t87.5 95q23 15 46 16q32 2 40 4l288 84q11 3 37 19q20 13 35 13q6 0 12 -2q74 -20 74 -56q0 -13 -6 -34zM577 173q6 -80 -40 -130q-38 -41 -88 -43q-59 -4 -110 35.5t-51 97.5
q0 57 45 99.5t104 42.5q47 0 94 -37q44 -35 46 -65zM765 175q-11 0 -31 -19q-25 -23 -25 -47q0 -16 15 -16q12 0 33.5 28.5t21.5 41.5q0 12 -14 12zM156 574q-10 3 -26.5 -30t-16.5 -54q0 -10 5 -12q8 -4 19.5 8.5t16.5 27.5q11 37 11 43q0 14 -9 17zM462 178q-10 0 -31 -19
q-24 -23 -24 -47q0 -16 14 -16q12 0 34 28.5t22 40.5q0 13 -15 13z" />
    <glyph glyph-name="Acircumflex" unicode="&#xc2;" horiz-adv-x="495" 
d="M345 656q-8 0 -14.5 2l-13.5 4q-3 2 -22 23l-49 55q-26 -22 -45 -60q-14 -27 -27 -28q-19 -1 -40 12t-21 31q0 20 55 71l29 44q19 28 37 28q24 0 41 -15l38 -39q81 -72 81 -92q0 -15 -17 -25.5t-32 -10.5zM470 163q-6 -10 -24 -11.5t-35 -2.5q6 -39 42 -90q21 -15 21 -40
q0 -39 -49 -39q-46 0 -62 23q-6 8 -7 22q0 9 -1 18q-7 7 -43 93q-65 -9 -162 -27q-9 -23 -20 -67q2 -8 2 -15q0 -45 -50 -45q-23 0 -41.5 16.5t-18.5 38.5q0 21 18 37q60 306 146 504q-2 10 -2 20q0 40 27 52q11 5 28 5q33 0 56 -11q30 -15 30 -43q0 -26 -15 -47
q15 -139 66 -314q63 13 59 13q10 0 16 -5q28 -21 28 -53q0 -17 -9 -32zM278 224q-13 51 -43 194q-56 -123 -67 -213z" />
    <glyph glyph-name="Ecircumflex" unicode="&#xca;" horiz-adv-x="354" 
d="M279 686q-8 0 -14.5 2l-13.5 4q-3 2 -22 23l-49 55q-26 -22 -45 -60q-14 -27 -27 -28q-19 -1 -40 12t-21 31q0 20 55 71l29 44q19 28 37 28q24 0 41 -15l38 -39q81 -72 81 -92q0 -15 -17 -25.5t-32 -10.5zM328 562q-25 -21 -75 -13q-23 -7 -42 -14q-45 -17 -59 -29
q-5 -78 0 -191q5 3 24 7q9 16 33 16q23 0 53.5 -22t30.5 -44q0 -6 -2 -11q-13 -33 -47 -34h-47q-11 -4 -45 -21q0 -72 5 -92q29 7 56 19l8 10q8 9 29 7q22 -2 46 -25.5t24 -48.5q0 -16 -11 -27q-19 -17 -69 -12l-75 -38q-4 -2 -20 -16q-12 -10 -22 -10q-43 0 -85 67
q-4 7 7 42q-6 150 -6 263q0 89 3 233q-6 8 -6 16q0 25 49 33q10 2 26 -6l20 -10l96 31q3 1 18 9q11 7 24 7q7 0 16 -2q17 -3 34 -27.5t17 -45.5q0 -14 -8 -21z" />
    <glyph glyph-name="Aacute" unicode="&#xc1;" horiz-adv-x="495" 
d="M347 788q2 -15 -10 -29q-24 -27 -25.5 -30t-12.5 -29q-6 -15 -17 -19q-7 -3 -17 -3q-43 0 -48 36q-3 24 11 51q16 31 47 49q10 6 23 6q18 0 32.5 -9t16.5 -23zM470 163q-6 -10 -24 -11.5t-35 -2.5q6 -39 42 -90q21 -15 21 -40q0 -39 -49 -39q-46 0 -62 23q-6 8 -7 22
q0 9 -1 18q-7 7 -43 93q-65 -9 -162 -27q-9 -23 -20 -67q2 -8 2 -15q0 -45 -50 -45q-23 0 -41.5 16.5t-18.5 38.5q0 21 18 37q60 306 146 504q-2 10 -2 20q0 40 27 52q11 5 28 5q33 0 56 -11q30 -15 30 -43q0 -26 -15 -47q15 -139 66 -314q63 13 59 13q10 0 16 -5
q28 -21 28 -53q0 -17 -9 -32zM278 224q-13 51 -43 194q-56 -123 -67 -213z" />
    <glyph glyph-name="Edieresis" unicode="&#xcb;" horiz-adv-x="354" 
d="M317 767q1 -4 -7 -41q0 -15 -10 -44q-8 -8 -28 -8q-52 0 -53 33q0 7 3.5 16t4.5 13.5t1 27.5q0 16 8.5 24.5t27.5 8.5q47 0 53 -30zM179 787q2 -9 -1.5 -19.5t-6.5 -21.5q1 -15 -9 -43q-7 -8 -27 -8q-52 0 -55 33q-1 6 3.5 16.5t5.5 12.5q2 6 1 28q-1 17 7.5 24.5
t26.5 7.5q49 0 55 -30zM328 562q-25 -21 -75 -13q-23 -7 -42 -14q-45 -17 -59 -29q-5 -78 0 -191q5 3 24 7q9 16 33 16q23 0 53.5 -22t30.5 -44q0 -6 -2 -11q-13 -33 -47 -34h-47q-11 -4 -45 -21q0 -72 5 -92q29 7 56 19l8 10q8 9 29 7q22 -2 46 -25.5t24 -48.5
q0 -16 -11 -27q-19 -17 -69 -12l-75 -38q-4 -2 -20 -16q-12 -10 -22 -10q-43 0 -85 67q-4 7 7 42q-6 150 -6 263q0 89 3 233q-6 8 -6 16q0 25 49 33q10 2 26 -6l20 -10l96 31q3 1 18 9q11 7 24 7q7 0 16 -2q17 -3 34 -27.5t17 -45.5q0 -14 -8 -21z" />
    <glyph glyph-name="Egrave" unicode="&#xc8;" horiz-adv-x="354" 
d="M205 684q-4 -27 -28 -27q-10 0 -25 6q-11 4 -17 19q-11 26 -12.5 29t-25.5 30q-12 14 -10 29q4 23 30 23q15 0 30 -9q31 -18 47 -49q14 -27 11 -51zM328 562q-25 -21 -75 -13q-23 -7 -42 -14q-45 -17 -59 -29q-5 -78 0 -191q5 3 24 7q9 16 33 16q23 0 53.5 -22t30.5 -44
q0 -6 -2 -11q-13 -33 -47 -34h-47q-11 -4 -45 -21q0 -72 5 -92q29 7 56 19l8 10q8 9 29 7q22 -2 46 -25.5t24 -48.5q0 -16 -11 -27q-19 -17 -69 -12l-75 -38q-4 -2 -20 -16q-12 -10 -22 -10q-43 0 -85 67q-4 7 7 42q-6 150 -6 263q0 89 3 233q-6 8 -6 16q0 25 49 33
q10 2 26 -6l20 -10l96 31q3 1 18 9q11 7 24 7q7 0 16 -2q17 -3 34 -27.5t17 -45.5q0 -14 -8 -21z" />
    <glyph glyph-name="Iacute" unicode="&#xcd;" horiz-adv-x="210" 
d="M191 788q2 -15 -10 -29q-24 -27 -25.5 -30t-12.5 -29q-6 -15 -17 -19q-7 -3 -17 -3q-43 0 -48 36q-3 24 11 51q16 31 47 49q10 6 23 6q18 0 32.5 -9t16.5 -23zM171 6q-9 -26 -62 -18q-79 12 -79 50q0 17 18 34q-3 121 -14 490q1 10 -6 24t-7 21q0 14 19 30q12 11 36 11
q27 0 56 -14q35 -16 35 -40q0 -4 -17 -44l8 -484q0 -10 7.5 -25t7.5 -24q0 -5 -2 -11z" />
    <glyph glyph-name="Icircumflex" unicode="&#xce;" horiz-adv-x="336" 
d="M261 677q-8 0 -14.5 2l-13.5 4q-3 2 -22 23l-49 55q-26 -22 -45 -60q-14 -27 -27 -28q-19 -1 -40 12t-21 31q0 20 55 71l29 44q19 28 37 28q24 0 41 -15l38 -39q81 -72 81 -92q0 -15 -17 -25.5t-32 -10.5zM255 -7q-9 -27 -62 -19q-79 12 -79 50q0 17 18 34
q-3 121 -14 490q1 10 -6 24t-7 21q0 14 19 30q12 11 36 11q27 0 56 -14q35 -16 35 -40q0 -4 -17 -44l8 -484q0 -10 7.5 -25t7.5 -24q0 -4 -2 -10z" />
    <glyph glyph-name="Idieresis" unicode="&#xcf;" horiz-adv-x="288" 
d="M269 761q1 -4 -7 -41q0 -15 -10 -44q-8 -8 -28 -8q-52 0 -53 33q0 7 3.5 16t4.5 13.5t1 27.5q0 16 8.5 24.5t27.5 8.5q47 0 53 -30zM131 781q2 -9 -1.5 -19.5t-6.5 -21.5q1 -15 -9 -43q-7 -8 -27 -8q-52 0 -55 33q-1 6 3.5 16.5t5.5 12.5q2 6 1 28q-1 17 7.5 24.5
t26.5 7.5q49 0 55 -30zM213 6q-9 -26 -62 -18q-79 12 -79 50q0 17 18 34q-3 121 -14 490q1 10 -6 24t-7 21q0 14 19 30q12 11 36 11q27 0 56 -14q35 -16 35 -40q0 -4 -17 -44l8 -484q0 -10 7.5 -25t7.5 -24q0 -5 -2 -11z" />
    <glyph glyph-name="Igrave" unicode="&#xcc;" horiz-adv-x="210" 
d="M163 702q-4 -27 -28 -27q-10 0 -25 6q-11 4 -17 19q-11 26 -12.5 29t-25.5 30q-12 14 -10 29q4 23 30 23q15 0 30 -9q31 -18 47 -49q14 -27 11 -51zM171 6q-9 -26 -62 -18q-79 12 -79 50q0 17 18 34q-3 121 -14 490q1 10 -6 24t-7 21q0 14 19 30q12 11 36 11q27 0 56 -14
q35 -16 35 -40q0 -4 -17 -44l8 -484q0 -10 7.5 -25t7.5 -24q0 -5 -2 -11z" />
    <glyph glyph-name="Oacute" unicode="&#xd3;" horiz-adv-x="432" 
d="M329 782q2 -15 -10 -29q-24 -27 -25.5 -30t-12.5 -29q-6 -15 -17 -19q-7 -3 -17 -3q-43 0 -48 36q-3 24 11 51q16 31 47 49q10 6 23 6q18 0 32.5 -9t16.5 -23zM410 336q5 -107 -37 -220.5t-90 -128.5q-20 -7 -75 0q-165 19 -182 349q-4 90 29 192q31 96 65 118q8 5 17 5
q8 0 23 -4.5t23 -4.5q10 0 35 4.5t37 4.5t19 -3q123 -50 136 -312zM302 336q-8 101 -21 151q-23 84 -66 84q-12 0 -25.5 -6t-34.5 -83q-23 -83 -23 -146q0 -82 28.5 -173t55.5 -91t59.5 93.5t26.5 170.5z" />
    <glyph glyph-name="Ocircumflex" unicode="&#xd4;" horiz-adv-x="432" 
d="M285 671q-8 0 -14.5 2l-13.5 4q-3 2 -22 23l-49 55q-26 -22 -45 -60q-14 -27 -27 -28q-19 -1 -40 12t-21 31q0 20 55 71l29 44q19 28 37 28q24 0 41 -15l38 -39q81 -72 81 -92q0 -15 -17 -25.5t-32 -10.5zM410 336q5 -107 -37 -220.5t-90 -128.5q-20 -7 -75 0
q-165 19 -182 349q-4 90 29 192q31 96 65 118q8 5 17 5q8 0 23 -4.5t23 -4.5q10 0 35 4.5t37 4.5t19 -3q123 -50 136 -312zM302 336q-8 101 -21 151q-23 84 -66 84q-12 0 -25.5 -6t-34.5 -83q-23 -83 -23 -146q0 -82 28.5 -173t55.5 -91t59.5 93.5t26.5 170.5z" />
    <glyph glyph-name="apple" unicode="&#xf8ff;" horiz-adv-x="790" 
d="M561 790q0 -51 -34 -103q-35 -55 -82 -71q-15 -5 -51 -8q2 165 164 203q3 -10 3 -21zM749 202q-19 -60 -61 -125q-65 -97 -129 -97q-25 0 -72.5 15.5t-73.5 15.5t-70.5 -16.5t-67.5 -16.5q-89 0 -162 150q-62 129 -62 231t48 174q55 85 151 85q31 0 84.5 -15t73.5 -15
q23 0 75.5 17t82.5 17q92 0 159 -82q-39 -34 -57 -60q-33 -46 -33 -103q0 -56 31 -106q32 -54 83 -69z" />
    <glyph glyph-name="Ograve" unicode="&#xd2;" horiz-adv-x="432" 
d="M410 336q5 -107 -37 -220.5t-90 -128.5q-20 -7 -75 0q-165 19 -182 349q-4 90 29 192q31 96 65 118q8 5 17 5q8 0 23 -4.5t23 -4.5q10 0 35 4.5t37 4.5t19 -3q123 -50 136 -312zM302 336q-8 101 -21 151q-23 84 -66 84q-12 0 -25.5 -6t-34.5 -83q-23 -83 -23 -146
q0 -82 28.5 -173t55.5 -91t59.5 93.5t26.5 170.5zM229 704q-4 -27 -28 -27q-10 0 -25 6q-11 4 -17 19q-11 26 -12.5 29t-25.5 30q-12 13 -10 29q4 23 30 23q15 0 30 -9q31 -18 47 -49q14 -27 11 -51z" />
    <glyph glyph-name="Uacute" unicode="&#xda;" horiz-adv-x="432" 
d="M317 776q2 -15 -10 -29q-24 -27 -25.5 -30t-12.5 -29q-6 -15 -17 -19q-7 -3 -17 -3q-43 0 -48 36q-3 24 11 51q16 31 47 49q10 6 23 6q18 0 32.5 -9t16.5 -23zM406 615q8 -15 8 -26l-9 -29q-1 -90 -3 -180q-8 -166 -43 -267q-47 -137 -141 -142q-110 -6 -158 170
q-32 121 -32 305q0 67 3 100q-8 24 -8 41q0 26 16 43q10 11 36 11q31 0 58.5 -15.5t28.5 -42.5q1 -13 -8 -28.5t-8 -25.5q-7 -25 11 -228q20 -217 50 -215q36 2 60 167q20 133 20 247q0 24 -2 34q2 10 -12 30t-14 34t11 29q17 25 62 25q54 0 74 -37z" />
    <glyph glyph-name="Ucircumflex" unicode="&#xdb;" horiz-adv-x="432" 
d="M310 663q-8 0 -14.5 2l-13.5 4q-3 2 -22 23l-49 55q-26 -22 -45 -60q-14 -27 -27 -28q-19 -1 -40 12t-21 31q0 20 55 71l29 44q19 28 37 28q24 0 41 -15l38 -39q81 -72 81 -92q0 -15 -17 -25.5t-32 -10.5zM406 615q8 -15 8 -26l-9 -29q-1 -90 -3 -180q-8 -166 -43 -267
q-47 -137 -141 -142q-110 -6 -158 170q-32 121 -32 305q0 67 3 100q-8 24 -8 41q0 26 16 43q10 11 36 11q31 0 58.5 -15.5t28.5 -42.5q1 -13 -8 -28.5t-8 -25.5q-7 -25 11 -228q20 -217 50 -215q36 2 60 167q20 133 20 247q0 24 -2 34q2 10 -12 30t-14 34t11 29q17 25 62 25
q54 0 74 -37z" />
    <glyph glyph-name="Ugrave" unicode="&#xd9;" horiz-adv-x="432" 
d="M259 684q-4 -27 -28 -27q-10 0 -25 6q-11 4 -17 19q-11 26 -12.5 29t-25.5 30q-12 14 -10 29q4 23 30 23q15 0 30 -9q31 -18 47 -49q14 -27 11 -51zM406 615q8 -15 8 -26l-9 -29q-1 -90 -3 -180q-8 -166 -43 -267q-47 -137 -141 -142q-110 -6 -158 170q-32 121 -32 305
q0 67 3 100q-8 24 -8 41q0 26 16 43q10 11 36 11q31 0 58.5 -15.5t28.5 -42.5q1 -13 -8 -28.5t-8 -25.5q-7 -25 11 -228q20 -217 50 -215q36 2 60 167q20 133 20 247q0 24 -2 34q2 10 -12 30t-14 34t11 29q17 25 62 25q54 0 74 -37z" />
    <glyph glyph-name="dotlessi" unicode="&#x131;" horiz-adv-x="200" 
d="M187 506q0 -14 -15.5 -43.5t-15.5 -48.5v-294q0 -20 11 -56.5t11 -50.5q0 -20 -16 -30q-25 -16 -54 -16q-38 0 -54 26q-21 32 -21 191q0 38 1.5 118.5t1.5 117.5q0 14 -3 36.5t-3 32.5q0 33 24 57q10 10 37 10t54 -8.5t34.5 -19.5t7.5 -22z" />
    <glyph glyph-name="circumflex" unicode="&#x2c6;" horiz-adv-x="310" 
d="M252 604q-7 0 -13.5 2t-12 4t-24.5 23l-49 55q-26 -22 -45 -60q-13 -27 -27 -28q-19 -1 -40 12t-21 31q0 21 55 71l29 44q20 28 37 28q25 0 41 -15l38 -39q78 -69 78 -92q0 -14 -15.5 -25t-30.5 -11z" />
    <glyph glyph-name="tilde" unicode="&#x2dc;" horiz-adv-x="340" 
d="M319 698q-44 -31 -70 -26l-102 22q-18 4 -42 -16q-26 -23 -37 -23q-19 0 -34.5 18.5t-15.5 37.5t13 33q8 9 26 20q25 14 46 14q6 0 12 -2l108 -30q17 -4 40.5 20t32.5 24q14 0 24 -23q7 -18 7 -35q0 -20 -8 -34z" />
    <glyph glyph-name="macron" unicode="&#xaf;" horiz-adv-x="450" 
d="M404 651q-6 0 -23 3.5t-27 2.5l-210 -32q-12 -2 -31.5 -10.5t-29.5 -8.5q-24 0 -43 23.5t-19 47.5q0 19 13 34q4 4 30 5q36 1 48 3l216 36q6 1 30 7q17 4 27 4q12 0 21 -5q30 -18 30 -66q0 -26 -10.5 -35t-21.5 -9z" />
    <glyph glyph-name="macron" unicode="&#x2c9;" horiz-adv-x="450" 
d="M404 651q-6 0 -23 3.5t-27 2.5l-210 -32q-12 -2 -31.5 -10.5t-29.5 -8.5q-24 0 -43 23.5t-19 47.5q0 19 13 34q4 4 30 5q36 1 48 3l216 36q6 1 30 7q17 4 27 4q12 0 21 -5q30 -18 30 -66q0 -26 -10.5 -35t-21.5 -9z" />
    <glyph glyph-name="breve" unicode="&#x2d8;" horiz-adv-x="380" 
d="M361 720q0 -14 -7 -27q-50 -135 -160 -135q-125 0 -169 156q-2 9 -2 15q0 23 16 39t39 16q29 0 45 -24l10 -23q13 -74 61 -81q32 -5 57 65q1 23 17 38.5t38 15.5q23 0 39 -16t16 -39z" />
    <glyph glyph-name="dotaccent" unicode="&#x2d9;" horiz-adv-x="190" 
d="M161 728q2 -12 -2 -28q-8 -24 -9 -28q-1 -16 -2.5 -33t-11 -28t-37.5 -11t-49 11q-25 13 -26 34q0 10 5 21q6 15 7.5 21.5t0.5 38.5q0 23 11.5 34t36.5 11q26 0 49 -12t27 -31z" />
    <glyph glyph-name="ring" unicode="&#x2da;" horiz-adv-x="210" 
d="M193 733q0 -40 -32 -72t-72 -32q-30 0 -50 20q-23 22 -23 53q0 38 30.5 71t73.5 33q32 0 52.5 -21.5t20.5 -51.5zM126 757q-17 0 -42 -23.5t-25 -42.5q0 -24 24 -24q26 0 49 30q16 22 16 36q0 24 -22 24z" />
    <glyph glyph-name="cedilla" unicode="&#xb8;" horiz-adv-x="190" 
d="M162 46q2 -8 2 -14q0 -17 -24 -45l-58 -78t-45 -40q-21 -1 -45 22t-19 46q0 2 32.5 34.5t40.5 58.5q6 8 7.5 26.5t7.5 24.5t20 6q23 0 50.5 -12.5t30.5 -28.5z" />
    <glyph glyph-name="hungarumlaut" unicode="&#x2dd;" horiz-adv-x="340" 
d="M292 672l-43 -65l-16 -47q-10 -5 -22 -5q-28 0 -51.5 23t-18.5 49q1 8 26 41l54 72q4 5 14 28q7 17 19 22q6 3 13 3q21 0 39.5 -22.5t18.5 -46.5q0 -8 -2.5 -16t-14.5 -18.5t-16 -17.5zM192 730q-3 -10 -15 -20.5t-16 -16.5l-43 -66l-16 -47q-10 -5 -22 -5
q-28 0 -51.5 23t-18.5 49q1 8 26 41l54 72q4 5 14 29q7 16 19 21q6 3 13 3q22 0 40 -22.5t18 -46.5q0 -8 -2 -14z" />
    <glyph glyph-name="ogonek" unicode="&#x2db;" horiz-adv-x="333" 
d="M294 -166q0 -23 -16 -39t-39 -16q-7 0 -14 2q-16 -3 -32 -3q-48 0 -79 21q-36 25 -36 74q0 79 65 126q9 44 55 44q22 0 38.5 -16.5t16.5 -37.5q0 -23 -16.5 -39t-38.5 -16q-8 0 -21 -13.5t-13 -22.5q0 -31 30 -33q16 24 45 24q23 0 39 -16t16 -39z" />
    <glyph glyph-name="caron" unicode="&#x2c7;" horiz-adv-x="310" 
d="M252 782q15 0 30.5 -11t15.5 -25q0 -23 -78 -92l-19 -19.5l-19 -19.5q-16 -15 -41 -15q-18 0 -37 28l-14 22t-15 22q-55 49 -55 71q0 9 6 17t15 14t20 9t20 3q14 -2 27 -28q20 -37 45 -60l49 55q20 22 24 23l12.5 4t13.5 2z" />
    <glyph glyph-name="uniE003" unicode="&#xe003;" horiz-adv-x="500" 
 />
    <glyph glyph-name="softhyphen" unicode="&#xad;" horiz-adv-x="370" 
d="M328 300q-8 -7 -19 -7q-5 0 -23 4t-28 1l-108 -26q-9 -2 -31 -12q-17 -7 -28 -7q-25 0 -44 23t-19 48q0 20 12 34q4 4 31 4q33 0 47 4l114 30q45 12 55 12q13 0 23 -6q31 -18 31 -66q0 -25 -13 -36z" />
    <glyph glyph-name="gravecmb" unicode="&#x300;" 
d="M-5 650q4 17 -27 54l-30 38l-30 38q-16 22 -21 26q-11 9 -31 11t-39 -24q-20 -25 -20 -43q0 -13 20 -21q24 -10 28 -16q23 -14 46 -55q12 -20 18.5 -30t7.5 -11q12 -5 22 -5q19 0 36 11.5t20 26.5z" />
    <glyph glyph-name="acutecmb" unicode="&#x301;" 
d="M-8 760q0 13 -16.5 23t-34.5 10q-16 0 -25 -9q-74 -79 -100 -144q-2 -6 -2 -11q0 -16 17 -26.5t39 -10.5q14 0 25 5t23 32l18 39q1 2 9.5 12.5l25.5 30.5q21 26 21 49z" />
    <glyph glyph-name="circumflexcmb" unicode="&#x302;" 
d="M-57 604q15 0 30.5 11t15.5 25q0 23 -78 92l-19 19.5l-19 19.5q-17 15 -41 15q-18 0 -37 -28l-14 -22t-15 -22q-55 -49 -55 -71q0 -9 6 -17t15 -14t20 -9t20 -3q14 2 27 28q19 38 45 60l49 -55q20 -22 24 -23l12.5 -4t13.5 -2z" />
    <glyph glyph-name="tildecmb" unicode="&#x303;" 
d="M-20 698q8 14 8 34q0 18 -7 35q-11 23 -24 23q-9 0 -33 -24q-23 -25 -40 -20l-108 30q-8 2 -12 2q-20 0 -46 -14q-18 -11 -26 -20q-13 -13 -13 -33q0 -19 15.5 -37.5t34.5 -18.5q11 0 37 23q25 20 42 16l102 -22q27 -5 70 26z" />
    <glyph glyph-name="macroncmb" unicode="&#x304;" 
d="M-45 651q11 0 21.5 9t10.5 35q0 48 -30 66q-10 5 -21 5q-12 0 -27 -4q-12 -3 -19.5 -4.5t-10.5 -2.5l-216 -36q-12 -1 -48 -3q-27 -2 -30 -5q-13 -14 -13 -34q0 -12 5 -24.5t14 -23t20 -17t23 -6.5q5 0 13 2.5t16.5 6t17 6.5t14.5 4l210 32q10 1 27 -2.5t23 -3.5z" />
    <glyph glyph-name="brevecmb" unicode="&#x306;" 
d="M-18 720q0 23 -16 39t-39 16q-22 0 -38 -15.5t-17 -38.5q-25 -70 -57 -65q-47 7 -61 81q-2 5 -5 11t-5 12q-17 24 -45 24q-23 0 -39 -16t-16 -39q0 -3 0.5 -6.5t1.5 -8.5q43 -156 169 -156q110 0 160 135q7 13 7 27z" />
    <glyph glyph-name="dotaccentcmb" unicode="&#x307;" 
d="M-28 728q-4 19 -27 31t-49 12q-48 0 -48 -45q1 -16 0.5 -25.5t-1.5 -13.5q-1 -3 -2.5 -8t-4.5 -13q-5 -12 -5 -21q2 -21 26 -34q22 -11 49 -11q21 0 31 6.5t14.5 17t4.5 23.5t1 25q1 2 3 9t6 19q4 14 2 28z" />
    <glyph glyph-name="dieresiscmb" unicode="&#x308;" 
d="M-24 804q-6 29 -52 29q-37 0 -37 -32q2 -23 0 -28q-1 -4 -5 -13.5t-4 -15.5q1 -34 54 -34q19 0 27 9q10 27 10 44q8 38 7 41zM-162 824q-6 30 -54 30q-35 0 -35 -32q1 -11 0.5 -18t-1.5 -10q0 -1 -6 -15q-3 -7 -3 -14q3 -34 55 -34q19 0 27 9q10 27 9 43q4 10 7 20.5
t1 20.5z" />
    <glyph glyph-name="ringcmb" unicode="&#x30a;" 
d="M-16 733q0 30 -20.5 51.5t-52.5 21.5q-43 0 -74 -33q-30 -33 -30 -71q0 -30 23 -53q20 -20 50 -20q40 0 72 32t32 72zM-83 757q22 0 22 -24q0 -14 -16 -36q-23 -30 -49 -30q-24 0 -24 24q0 20 25 42q25 24 42 24z" />
    <glyph glyph-name="hungarumlautcmb" unicode="&#x30b;" 
d="M-47 672q4 6 16 17t14.5 19t2.5 16q0 12 -5 24.5t-13.5 22t-19 16t-20.5 6.5q-7 0 -13 -3q-11 -4 -19 -22l-8.5 -18.5t-5.5 -9.5l-54 -72q-24 -31 -26 -41q-5 -26 18 -49q25 -23 52 -23q10 0 22 5l16 47zM-147 730q2 8 2 14q0 12 -5 24.5t-13 22t-18.5 16t-21.5 6.5
q-7 0 -13 -3q-11 -4 -19 -21q-5 -12 -8.5 -19.5t-5.5 -9.5l-54 -72q-24 -31 -26 -41q-5 -26 18 -49q25 -23 52 -23q10 0 22 5l16 47l43 66q4 6 16 16.5t15 20.5z" />
    <glyph glyph-name="caroncmb" unicode="&#x30c;" 
d="M-57 782q15 0 30.5 -11t15.5 -25q0 -23 -78 -92l-19 -19.5l-19 -19.5q-17 -15 -41 -15q-18 0 -37 28l-14 22t-15 22q-55 49 -55 71q0 9 6 17t15 14t20 9t20 3q14 -2 27 -28q19 -37 45 -60l49 55q20 22 24 23l12.5 4t13.5 2z" />
    <glyph glyph-name="ogonekcmb" unicode="&#x328;" 
d="M-38 -165q0 23 -16 39t-39 16q-29 0 -45 -24q-30 1 -30 33q0 4 4 10.5t9 12t11 9.5t10 4q22 0 38.5 16t16.5 39q0 20 -16.5 36.5t-38.5 16.5q-46 0 -55 -43q-65 -47 -65 -126q0 -49 36 -74q31 -21 79 -21q15 0 32 3q4 -1 7 -1.5t7 -0.5q23 0 39 16t16 39z" />
    <glyph glyph-name="soliduslongoverlaycmb" unicode="&#x338;" 
d="M-9 738q1 29 -29 55q-28 22 -60 22q-11 0 -23 -5q-15 -7 -21 -32q-4 -17 -6.5 -26.5t-4.5 -13.5l-330 -618q-2 -2 -7 -9.5t-15 -18.5q-12 -15 -14 -32q0 -33 41 -57q37 -20 61 -15q15 3 27 38q16 54 23 66l308 584q6 13 30 32q20 18 20 30z" />
    <glyph glyph-name="cedillacmb" unicode="&#x327;" 
d="M-27 46q-3 16 -31 28q-26 13 -50 13q-14 0 -20 -6q-3 -3 -4.5 -10l-3 -14.5l-3 -15t-4.5 -11.5q-8 -26 -41 -57q-32 -34 -32 -35q-5 -24 19 -46q25 -23 45 -22q17 2 45 40q14 20 29 39t29 39q24 28 24 44q0 4 -2 14z" />
    <glyph glyph-name="uniE001" unicode="&#xe001;" 
 />
    </font>
</defs>
</svg>
